<svg width="130" height="130" viewBox="0 0 130 130" fill="none" xmlns="http://www.w3.org/2000/svg">
<path d="M37.8417 49.7354C48.0284 49.7354 56.316 41.4479 56.316 31.2611C56.316 21.0795 48.0285 12.792 37.8417 12.792C27.6549 12.792 19.3674 21.0795 19.3674 31.2663C19.3725 41.4479 27.66 49.7354 37.8417 49.7354ZM37.8417 15.392C46.5914 15.392 53.716 22.5116 53.716 31.2663C53.716 40.0159 46.5964 47.1406 37.8417 47.1406C29.0921 47.1406 21.9674 40.021 21.9674 31.2663C21.9725 22.5116 29.0921 15.392 37.8417 15.392V15.392Z" fill="#DDE0EE"/>
<path d="M24.9639 86.4239C31.5858 86.4239 36.9737 81.036 36.9737 74.4141C36.9737 67.7921 31.5858 62.4043 24.9639 62.4043C18.342 62.4043 12.9541 67.7921 12.9541 74.4141C12.9541 81.036 18.342 86.4239 24.9639 86.4239V86.4239ZM24.9639 65.0038C30.1537 65.0038 34.3737 69.2237 34.3737 74.4136C34.3737 79.6034 30.1537 83.8234 24.9639 83.8234C19.774 83.8234 15.5541 79.6034 15.5541 74.4136C15.5541 69.2237 19.774 65.0038 24.9639 65.0038Z" fill="#DDE0EE"/>
<path d="M21.0185 75.7147C21.7345 75.7147 22.3185 75.1358 22.3185 74.4147C22.3185 72.9573 23.5068 71.7689 24.9643 71.7689C25.6803 71.7689 26.2643 71.19 26.2643 70.4689C26.2643 69.7478 25.6803 69.1689 24.9643 69.1689C22.0697 69.1689 19.7185 71.5252 19.7185 74.4147C19.7185 75.1358 20.2974 75.7147 21.0185 75.7147V75.7147Z" fill="#DDE0EE"/>
<path d="M28.4675 30.3265C29.1835 30.3265 29.7675 29.7476 29.7675 29.0265C29.7675 25.7714 32.4132 23.1256 35.6683 23.1256C36.3843 23.1256 36.9683 22.5467 36.9683 21.8256C36.9683 21.1045 36.3843 20.5256 35.6683 20.5256C30.9812 20.5256 27.1675 24.3393 27.1675 29.0265C27.1675 29.7476 27.7515 30.3265 28.4675 30.3265Z" fill="#DDE0EE"/>
<path d="M98.3384 110.663C108.525 110.663 116.813 102.375 116.813 92.1883C116.813 83.0933 110.196 75.5275 101.527 74.0091C102.071 71.9677 102.365 69.8603 102.365 67.7325C102.365 54.3061 91.4422 43.3835 78.0162 43.3835C64.5902 43.3835 53.6672 54.3065 53.6672 67.7325C53.6672 81.1589 64.5902 92.0815 78.0162 92.0815C78.6358 92.0815 79.2604 92.0358 79.8799 91.9901C79.8799 92.0562 79.8698 92.1222 79.8698 92.1933C79.8698 102.38 88.1522 110.662 98.3389 110.662L98.3384 110.663ZM114.213 92.1935C114.213 100.943 107.093 108.068 98.3384 108.068C89.5888 108.068 82.4641 100.948 82.4641 92.1935C82.4641 83.4438 89.5837 76.3192 98.3384 76.3192C107.093 76.3192 114.213 83.4388 114.213 92.1935ZM78.0155 89.4869C66.021 89.4869 56.2665 79.7318 56.2665 67.7379C56.2665 55.7433 66.0216 45.9889 78.0155 45.9889C90.0101 45.9889 99.7645 55.7439 99.7645 67.7379C99.7645 69.7843 99.47 71.8004 98.9114 73.7504C98.7184 73.7453 98.5356 73.7199 98.3427 73.7199C89.1157 73.7199 81.4687 80.5297 80.1076 89.381C79.4119 89.447 78.7111 89.4876 78.0153 89.4876L78.0155 89.4869Z" fill="#DDE0EE"/>
<path d="M96.17 81.4529C91.4829 81.4529 87.6692 85.2666 87.6692 89.9537C87.6692 90.6748 88.2532 91.2537 88.9692 91.2537C89.6852 91.2537 90.2692 90.6748 90.2692 89.9537C90.2692 86.6986 92.915 84.0529 96.17 84.0529C96.886 84.0529 97.47 83.474 97.47 82.7529C97.47 82.0318 96.886 81.4529 96.17 81.4529V81.4529Z" fill="#DDE0EE"/>
<path d="M78.0157 50.7051C69.2002 50.7051 62.0244 57.8754 62.0244 66.6912C62.0244 67.4123 62.6084 67.9912 63.3244 67.9912C64.0404 67.9912 64.6244 67.4123 64.6244 66.6912C64.6244 59.3076 70.6318 53.3051 78.0157 53.3051C78.7317 53.3051 79.3157 52.7262 79.3157 52.0051C79.3157 51.2891 78.7317 50.7051 78.0157 50.7051V50.7051Z" fill="#DDE0EE"/>
<path d="M33.4036 99.0899C33.4036 99.5622 33.6626 100.004 34.079 100.232L38.2582 102.518C42.2141 104.681 45.4437 107.911 47.607 111.866L49.8922 116.046C50.1207 116.462 50.5574 116.721 51.0347 116.721C51.5121 116.721 51.9488 116.462 52.1773 116.046L54.4625 111.866C56.6258 107.911 59.8554 104.681 63.8113 102.518L67.9905 100.232C68.4069 100.004 68.6659 99.5673 68.6659 99.0899C68.6659 98.6176 68.4069 98.1759 67.9905 97.9473L63.8113 95.6622C59.8554 93.4989 56.6258 90.2693 54.4625 86.3134L52.1773 82.1341C51.9488 81.7177 51.5121 81.4587 51.0347 81.4587C50.5625 81.4587 50.1207 81.7177 49.8922 82.1341L47.607 86.3134C45.4437 90.2693 42.2141 93.4989 38.2582 95.6622L34.079 97.9473C33.6626 98.1758 33.4036 98.6126 33.4036 99.0899ZM39.5125 97.9423C43.9051 95.5402 47.4953 91.95 49.8973 87.5575L51.045 85.4653L52.1926 87.5575C54.5946 91.95 58.1848 95.5402 62.5774 97.9423L64.6747 99.0899L62.5774 100.238C58.1848 102.64 54.5946 106.23 52.1926 110.622L51.045 112.715L49.8922 110.617C47.4902 106.225 43.9 102.635 39.5074 100.232L37.4102 99.0848L39.5125 97.9423Z" fill="#DDE0EE"/>
<path d="M79.8992 25.6907C78.2996 24.8173 76.9945 23.5071 76.1212 21.9126L75.1258 20.0947C74.6688 19.2568 73.2978 19.2568 72.8458 20.0947L71.8505 21.9126C70.977 23.5123 69.6719 24.8174 68.0724 25.6907L66.2545 26.686C65.8381 26.9145 65.5791 27.3512 65.5791 27.8286C65.5791 28.3059 65.8381 28.7427 66.2545 28.9712L68.0724 29.9665C69.6721 30.8399 70.9771 32.1501 71.8505 33.7445L72.8458 35.5625C73.0743 35.9789 73.511 36.2379 73.9884 36.2379C74.4606 36.2379 74.9024 35.9789 75.1309 35.5625L76.1262 33.7445C76.9997 32.1449 78.3048 30.8398 79.9043 29.9665L81.7222 28.9712C82.1386 28.7427 82.3976 28.3059 82.3976 27.8286C82.3976 27.3563 82.1386 26.9145 81.7222 26.686L79.8992 25.6907ZM73.9832 32.2365C72.9218 30.4032 71.4085 28.89 69.5754 27.8236C71.4087 26.7623 72.9219 25.249 73.9832 23.4158C75.0445 25.2491 76.5578 26.7623 78.391 27.8287C76.5577 28.8849 75.0445 30.4033 73.9832 32.2365Z" fill="#DDE0EE"/>
<path d="M13.8386 109.388L15.6565 110.384C17.2561 111.257 18.5612 112.567 19.4346 114.162L20.4299 115.98C20.6584 116.396 21.0951 116.655 21.5724 116.655C22.0447 116.655 22.4865 116.396 22.715 115.98L23.7103 114.162C24.5838 112.562 25.8889 111.257 27.4884 110.384L29.3063 109.388C29.7227 109.16 29.9817 108.723 29.9817 108.246C29.9817 107.774 29.7227 107.332 29.3063 107.103L27.4884 106.108C25.8887 105.234 24.5837 103.924 23.7103 102.33L22.715 100.512C22.258 99.6741 20.887 99.6741 20.435 100.512L19.4397 102.33C18.5662 103.93 17.2611 105.235 15.6616 106.108L13.8437 107.103C13.4273 107.332 13.1683 107.768 13.1683 108.246C13.1632 108.723 13.4222 109.16 13.8386 109.388H13.8386ZM21.5725 103.838C22.6339 105.671 24.1472 107.185 25.9803 108.246C24.1471 109.307 22.6339 110.82 21.5725 112.659C20.5112 110.825 18.9979 109.312 17.1648 108.246C18.998 107.185 20.5112 105.671 21.5725 103.838Z" fill="#DDE0EE"/>
<path d="M116.137 24.8521L113.247 23.2729C110.586 21.8154 108.408 19.6369 106.95 16.9759L105.371 14.0864C104.914 13.2485 103.543 13.2485 103.091 14.0864L101.512 16.9759C100.054 19.6369 97.8758 21.8154 95.2148 23.2729L92.3253 24.8521C91.9089 25.0806 91.6499 25.5174 91.6499 25.9947C91.6499 26.467 91.9089 26.9088 92.3253 27.1373L95.2148 28.7165C97.8758 30.174 100.054 32.3525 101.512 35.0135L103.091 37.903C103.319 38.3194 103.756 38.5784 104.234 38.5784C104.706 38.5784 105.148 38.3194 105.376 37.903L106.955 35.0135C108.413 32.3525 110.591 30.174 113.252 28.7165L116.142 27.1373C116.558 26.9088 116.817 26.472 116.817 25.9947C116.807 25.5174 116.553 25.0806 116.137 24.8521H116.137ZM111.998 26.4314C108.9 28.1275 106.361 30.6614 104.665 33.7641L104.223 34.5665L103.787 33.7641C102.091 30.6614 99.5567 28.1275 96.454 26.4314L95.6516 25.9896L96.454 25.5478C99.5516 23.8517 102.091 21.3177 103.787 18.215L104.223 17.4126L104.665 18.215C106.361 21.3177 108.895 23.8517 111.998 25.5478L112.8 25.9896L111.998 26.4314Z" fill="#DDE0EE"/>
</svg>
