<svg width="300" height="300" viewBox="0 0 300 300" fill="none" xmlns="http://www.w3.org/2000/svg">
<path d="M0 149.827C0 67.0796 67.253 0 150 0V0C232.747 0 300 67.0796 300 149.827V149.827C300 232.574 232.747 299.653 150 299.653V299.653C67.253 299.653 0 232.574 0 149.827V149.827Z" fill="white"/>
<path d="M177.166 93.9442C177.603 94.2877 178.027 94.6844 178.426 95.1407C179.187 96.0119 179.887 97.6752 179.963 98.8303C179.972 98.9547 179.978 99.0766 179.983 99.1984C180.217 106.644 171.554 110.162 166.521 104.528C165.865 103.79 165.265 102.509 165.023 101.402C164.969 101.144 164.93 100.897 164.919 100.674C164.855 99.6224 164.964 98.6475 165.22 97.7581C166.677 92.6893 172.774 90.536 177.166 93.9442V93.9442ZM162.33 114.402L165.249 112.239C165.494 112.061 165.819 112.035 166.087 112.173C166.43 112.349 166.784 112.511 167.147 112.66C167.821 112.939 168.501 113.162 169.184 113.324C169.504 113.4 169.745 113.658 169.793 113.981L170.369 117.734C170.427 118.136 170.788 118.425 171.197 118.398L174.661 118.168C175.054 118.143 175.36 117.826 175.379 117.436L175.527 113.942C175.534 113.603 175.771 113.31 176.109 113.218C177.534 112.827 178.895 112.209 180.138 111.387C180.438 111.189 180.844 111.224 181.109 111.466L182.679 112.901C182.98 113.171 183.438 113.18 183.746 112.912L186.326 110.626C186.378 110.579 186.425 110.529 186.462 110.472C186.645 110.203 186.641 109.838 186.439 109.571L184.825 107.388L184.431 106.857C184.757 106.301 185.053 105.711 185.305 105.1C185.644 104.275 185.901 103.432 186.075 102.595C186.142 102.276 186.395 102.028 186.718 101.98L189.741 101.52C190.154 101.454 190.451 101.087 190.42 100.672L190.246 98.0239L190.193 97.2655C190.169 96.8507 189.832 96.5201 189.419 96.5045L186.5 96.3775C186.161 96.3671 185.867 96.1428 185.776 95.8226C185.489 94.8685 185.101 93.9455 184.617 93.0782C184.582 92.9991 184.542 92.9304 184.499 92.8578C184.483 92.8332 184.472 92.8072 184.461 92.7813C184.327 92.4909 184.387 92.1513 184.604 91.914L186.929 89.3601C186.957 89.3342 186.979 89.3005 187 89.2707C187.2 88.9751 187.176 88.5706 186.939 88.2971L184.663 85.7225C184.388 85.4114 183.924 85.3621 183.587 85.6097L180.543 87.8667C180.288 88.0612 179.939 88.0728 179.665 87.9043C179.061 87.54 178.419 87.2146 177.741 86.9359C177.382 86.7881 177.021 86.6559 176.656 86.5405C176.362 86.4446 176.143 86.1918 176.098 85.8858L175.543 82.2793C175.484 81.8826 175.127 81.5935 174.721 81.6194L171.296 81.8502C170.881 81.8774 170.552 82.2093 170.533 82.6293L170.416 85.3932C170.4 85.764 170.135 86.0712 169.774 86.1464C168.353 86.4225 166.987 86.9216 165.717 87.6178C165.421 87.7863 165.045 87.7436 164.789 87.5089L162.488 85.4126C162.181 85.1313 161.709 85.13 161.394 85.4036L158.828 87.6697C158.52 87.9406 158.473 88.4073 158.717 88.7301L158.81 88.8584L160.686 91.3929C160.887 91.6638 160.896 92.0242 160.715 92.3094V92.3133C160.279 92.9965 159.897 93.7264 159.576 94.5029C159.405 94.9178 159.26 95.3326 159.129 95.7552C159.042 96.0495 158.795 96.2647 158.493 96.3114L155.424 96.7794C155.003 96.8429 154.702 97.2201 154.731 97.6389L154.959 101.051C154.965 101.148 154.992 101.242 155.026 101.323C155.148 101.593 155.416 101.785 155.722 101.799L158.054 101.894C158.341 101.908 158.598 102.074 158.727 102.32C158.761 102.386 158.787 102.456 158.804 102.531C159.168 104.354 159.893 106.081 160.935 107.62C161.117 107.879 161.113 108.22 160.948 108.483C160.925 108.521 160.896 108.556 160.866 108.591L158.981 110.657C158.708 110.955 158.704 111.413 158.972 111.72L159.024 111.781L161.24 114.292C161.522 114.606 161.992 114.653 162.33 114.402" fill="#FFEED9"/>
<path d="M199.387 64.1927C199.691 64.5089 199.975 64.8631 200.236 65.2625C200.73 66.0217 201.089 67.392 201.022 68.298C201.016 68.3954 201.006 68.4913 200.998 68.5873C200.357 74.3959 193.237 76.174 189.951 71.2404C189.523 70.5954 189.198 69.5342 189.132 68.6466C189.118 68.4405 189.115 68.2444 189.132 68.0694C189.198 67.2452 189.39 66.5001 189.687 65.8368C191.377 62.0618 196.352 61.0613 199.387 64.1927ZM185.604 78.4503L188.112 77.0913C188.321 76.9798 188.575 76.9953 188.769 77.1322C189.016 77.3058 189.273 77.4723 189.539 77.6275C190.031 77.9182 190.535 78.1666 191.049 78.3684C191.29 78.463 191.448 78.6888 191.448 78.9456L191.482 81.9247C191.482 82.2436 191.73 82.5089 192.052 82.5315L194.769 82.7361C195.076 82.7587 195.349 82.5471 195.408 82.2465L195.907 79.5482C195.951 79.2857 196.167 79.0839 196.439 79.0501C197.59 78.9033 198.716 78.5731 199.773 78.0721C200.027 77.9521 200.339 78.0227 200.518 78.24L201.578 79.5284C201.782 79.7712 202.138 79.829 202.407 79.6555L204.663 78.1638C204.709 78.1328 204.752 78.1003 204.785 78.0594C204.958 77.8717 204.996 77.5866 204.867 77.3566L203.855 75.4825L203.606 75.0267C203.923 74.6315 204.217 74.2053 204.481 73.758C204.835 73.154 205.127 72.5288 205.354 71.8966C205.442 71.6567 205.665 71.4916 205.921 71.4916L208.322 71.4662C208.649 71.4619 208.92 71.2093 208.943 70.8833L209.099 68.806L209.143 68.2119C209.169 67.8873 208.944 67.5924 208.624 67.5345L206.37 67.114C206.109 67.0688 205.904 66.8628 205.871 66.6031C205.752 65.8298 205.552 65.0705 205.274 64.3423C205.254 64.2774 205.23 64.2196 205.205 64.1589C205.195 64.1377 205.189 64.1166 205.183 64.0954C205.113 63.8555 205.195 63.5972 205.389 63.4377L207.479 61.7104C207.503 61.6921 207.525 61.6695 207.544 61.6483C207.732 61.4409 207.759 61.1248 207.604 60.8849L206.119 58.634C205.941 58.3616 205.586 58.2727 205.296 58.4265L202.683 59.8448C202.463 59.9676 202.192 59.9379 201.997 59.7771C201.568 59.4271 201.105 59.1039 200.608 58.8118C200.346 58.658 200.079 58.5154 199.809 58.3856C199.591 58.2783 199.45 58.0582 199.448 57.8155L199.416 54.9521C199.413 54.6374 199.167 54.3735 198.85 54.3495L196.163 54.1505C195.838 54.1251 195.545 54.3467 195.484 54.6713L195.088 56.805C195.034 57.0915 194.795 57.3018 194.506 57.3187C193.373 57.378 192.254 57.6151 191.193 58.0144C190.944 58.1132 190.656 58.0384 190.483 57.8282L188.928 55.9456C188.719 55.693 188.353 55.6408 188.078 55.8186L185.836 57.2947C185.565 57.4711 185.477 57.8282 185.631 58.1062L185.689 58.2162L186.867 60.3923C186.994 60.6252 186.962 60.906 186.788 61.1078V61.1107C186.373 61.5933 185.996 62.1183 185.662 62.6856C185.483 62.989 185.325 63.2966 185.177 63.6099C185.076 63.8287 184.86 63.9684 184.62 63.9712L182.183 63.9966C181.85 63.9994 181.575 64.2591 181.551 64.5879L181.351 67.2636C181.346 67.3398 181.356 67.4146 181.375 67.4823C181.438 67.7053 181.626 67.8831 181.863 67.9297L183.664 68.2599C183.884 68.3022 184.066 68.4603 184.139 68.6663C184.158 68.7199 184.172 68.7778 184.175 68.8385C184.256 70.2934 184.63 71.7159 185.27 73.027C185.381 73.2471 185.34 73.5124 185.185 73.6987C185.162 73.7241 185.136 73.7495 185.109 73.7721L183.417 75.1692C183.173 75.3724 183.118 75.7266 183.293 75.9948L183.326 76.0484L184.77 78.2428C184.955 78.518 185.313 78.6069 185.604 78.4503" fill="#FFEED9"/>
<path d="M50.6382 147.811C50.8569 148.039 51.0635 148.297 51.2518 148.585C51.6102 149.137 51.8706 150.129 51.8218 150.784C51.817 150.854 51.8102 150.924 51.8035 150.993C51.3404 155.201 46.1841 156.488 43.8033 152.915C43.4929 152.448 43.2575 151.679 43.2095 151.037C43.2005 150.887 43.198 150.745 43.2098 150.619C43.2576 150.022 43.3974 149.482 43.6119 149.002C44.8368 146.268 48.4389 145.543 50.6382 147.811V147.811ZM40.6556 158.137L42.4709 157.152C42.6228 157.073 42.8068 157.084 42.9475 157.182C43.1268 157.308 43.3124 157.428 43.5046 157.541C43.862 157.752 44.2264 157.932 44.5981 158.078C44.7722 158.146 44.8872 158.311 44.8877 158.496L44.9121 160.654C44.9125 160.884 45.0923 161.076 45.3254 161.093L47.2927 161.241C47.5157 161.258 47.713 161.105 47.7552 160.887L48.1177 158.933C48.149 158.743 48.3054 158.597 48.5029 158.571C49.3362 158.466 50.1514 158.226 50.9163 157.864C51.1011 157.776 51.3268 157.828 51.4564 157.985L52.2249 158.918C52.3725 159.094 52.6302 159.136 52.8245 159.01L54.4586 157.93C54.4923 157.908 54.5223 157.883 54.5476 157.854C54.6719 157.718 54.6991 157.512 54.6066 157.345L53.8731 155.988L53.6937 155.658C53.9223 155.371 54.1351 155.063 54.3259 154.738C54.583 154.302 54.7948 153.848 54.9593 153.391C55.0227 153.217 55.1843 153.098 55.3701 153.097L57.1083 153.08C57.3459 153.076 57.5422 152.893 57.5582 152.657L57.6721 151.152L57.7035 150.722C57.7215 150.487 57.5594 150.273 57.328 150.232L55.6955 149.927C55.506 149.894 55.3586 149.745 55.333 149.557C55.247 148.997 55.1029 148.446 54.9006 147.919C54.8866 147.873 54.8692 147.831 54.851 147.786C54.8439 147.771 54.84 147.756 54.8359 147.74C54.7842 147.566 54.8445 147.38 54.9856 147.265L56.4979 146.013C56.516 146.001 56.5313 145.983 56.5455 145.967C56.681 145.818 56.7006 145.589 56.5883 145.416L55.5139 143.785C55.384 143.588 55.1269 143.523 54.9172 143.634L53.0244 144.662C52.8647 144.751 52.6683 144.729 52.5278 144.613C52.2169 144.36 51.8815 144.126 51.5222 143.914C51.332 143.802 51.139 143.699 50.9434 143.605C50.7852 143.528 50.6829 143.368 50.6818 143.192L50.6578 141.118C50.6561 140.89 50.4783 140.699 50.2483 140.682L48.302 140.537C48.0669 140.519 47.855 140.68 47.8106 140.915L47.5233 142.461C47.4849 142.668 47.3121 142.82 47.103 142.832C46.2812 142.874 45.4717 143.047 44.7026 143.336C44.522 143.407 44.3136 143.354 44.1886 143.201L43.0618 141.838C42.9108 141.655 42.6457 141.616 42.4471 141.745L40.8218 142.815C40.6263 142.943 40.5633 143.201 40.6747 143.403L40.7168 143.482L41.5696 145.059C41.6611 145.227 41.638 145.43 41.513 145.576L41.5117 145.579C41.2123 145.928 40.9389 146.308 40.6967 146.72C40.5676 146.94 40.4525 147.162 40.3451 147.388C40.2727 147.548 40.1163 147.648 39.9424 147.651L38.1779 147.669C37.9364 147.67 37.7368 147.859 37.7195 148.097L37.5751 150.035C37.5713 150.091 37.5788 150.144 37.5915 150.194C37.6381 150.354 37.7737 150.484 37.9452 150.517L39.2497 150.756C39.4092 150.788 39.5408 150.902 39.5942 151.051C39.6077 151.09 39.6169 151.131 39.62 151.176C39.6793 152.23 39.9494 153.26 40.4127 154.209C40.4936 154.369 40.4645 154.561 40.3513 154.695C40.3348 154.715 40.3164 154.732 40.296 154.749L39.0707 155.761C38.8931 155.908 38.8543 156.164 38.9804 156.359L39.0051 156.397L40.0508 157.987C40.1847 158.186 40.4449 158.251 40.6556 158.137" fill="#FFEED9"/>
<path d="M230.203 95.8291C230.885 96.3823 231.543 97.0209 232.162 97.7516C233.34 99.146 234.4 101.792 234.492 103.618C234.502 103.814 234.509 104.007 234.514 104.2C234.689 115.962 220.916 121.289 213.119 112.26C212.102 111.078 211.188 109.04 210.833 107.285C210.758 106.877 210.703 106.485 210.689 106.132C210.616 104.471 210.816 102.934 211.241 101.536C213.675 93.5729 223.356 90.3322 230.203 95.8291V95.8291ZM206.241 127.742L210.906 124.403C211.3 124.128 211.81 124.096 212.232 124.319C212.769 124.606 213.323 124.872 213.891 125.118C214.949 125.574 216.016 125.945 217.092 126.218C217.594 126.347 217.969 126.761 218.034 127.273L218.847 133.214C218.928 133.848 219.489 134.317 220.137 134.282L225.613 134.013C226.233 133.981 226.725 133.49 226.765 132.873L227.092 127.362C227.11 126.826 227.492 126.369 228.028 126.233C230.289 125.654 232.454 124.713 234.437 123.448C234.917 123.144 235.558 123.209 235.97 123.598L238.41 125.905C238.877 126.339 239.604 126.365 240.094 125.95L244.227 122.408C244.314 122.336 244.387 122.259 244.447 122.169C244.742 121.751 244.746 121.173 244.434 120.745L241.944 117.257L241.335 116.408C241.867 115.54 242.347 114.616 242.761 113.656C243.32 112.362 243.745 111.04 244.042 109.722C244.157 109.219 244.561 108.835 245.074 108.77L249.859 108.121C250.513 108.028 250.992 107.457 250.955 106.8L250.748 102.614L250.688 101.415C250.656 100.76 250.136 100.229 249.482 100.193L244.878 99.917C244.342 99.891 243.885 99.5299 243.75 99.0216C243.32 97.5064 242.733 96.0394 241.992 94.6566C241.937 94.5307 241.875 94.4221 241.81 94.3052C241.785 94.2674 241.769 94.2262 241.752 94.1851C241.55 93.7227 241.652 93.187 242.001 92.8195L245.74 88.8485C245.785 88.8066 245.82 88.7543 245.855 88.7074C246.175 88.2461 246.152 87.6083 245.781 87.1694L242.257 83.0436C241.83 82.5466 241.1 82.4565 240.561 82.8368L235.696 86.3225C235.286 86.6228 234.737 86.6312 234.309 86.3575C233.365 85.7671 232.359 85.2367 231.295 84.7781C230.733 84.5346 230.166 84.3178 229.594 84.126C229.13 83.9675 228.793 83.5622 228.73 83.0786L227.948 77.368C227.866 76.7393 227.309 76.274 226.667 76.304L221.251 76.5792C220.598 76.6108 220.069 77.1262 220.027 77.79L219.769 82.1513C219.734 82.735 219.31 83.2137 218.738 83.3221C216.487 83.7207 214.313 84.4745 212.294 85.5386C211.82 85.7988 211.226 85.7187 210.829 85.3435L207.254 81.9728C206.773 81.5209 206.029 81.5059 205.526 81.9295L201.413 85.4402C200.918 85.8605 200.834 86.5945 201.211 87.1115L201.355 87.3165L204.25 91.3677C204.56 91.8017 204.567 92.3706 204.273 92.8162L204.268 92.8219C203.564 93.8879 202.941 95.0305 202.417 96.2492C202.135 96.8986 201.895 97.5518 201.677 98.2145C201.533 98.6769 201.136 99.0104 200.657 99.077L195.799 99.7351C195.134 99.823 194.648 100.411 194.683 101.074L194.952 106.467C194.962 106.621 195 106.768 195.054 106.899C195.237 107.326 195.656 107.636 196.139 107.668L199.82 107.878C200.271 107.909 200.672 108.178 200.871 108.57C200.921 108.674 200.961 108.787 200.984 108.906C201.511 111.793 202.612 114.537 204.218 116.996C204.495 117.409 204.482 117.948 204.215 118.359C204.177 118.417 204.132 118.473 204.081 118.526L201.053 121.739C200.612 122.204 200.594 122.926 201.009 123.419L201.091 123.515L204.523 127.539C204.96 128.041 205.699 128.128 206.241 127.742" fill="#FFEED9"/>
<path d="M61.4448 117.841C62.905 110.433 75.3308 111.847 75.3308 111.847C75.3308 111.847 84.5504 123.986 86.9947 124.118C89.4389 124.252 81.1387 112.201 81.1387 112.201C85.8016 111.419 98.1682 116.337 98.1682 116.337C98.1682 116.337 98.4496 131.23 100.852 130.758C103.253 130.286 99.9295 117.582 99.9295 117.582C104.569 118.628 109.18 123.632 109.18 123.632C115.084 131.893 104.17 139.049 104.17 139.049C104.17 139.049 104.38 144.208 107.974 149.892C107.974 149.892 108.768 150.933 109.627 152.735L108.388 152.821C108.264 152.496 108.13 152.183 107.985 151.883L107.982 151.878L107.976 151.866C107.878 151.679 107.737 151.416 107.562 151.095L107.56 151.093L107.559 151.092C107.13 150.377 106.836 149.848 106.646 149.465L106.644 149.461C105.349 147.215 103.502 144.3 102.368 143.74C102.368 143.74 102.492 143.537 102.594 143.154C102.523 143.34 102.448 143.536 102.368 143.74C100.566 148.432 90.0185 149.931 84.0274 149.133C78.0363 148.335 80.4943 146.488 83.4853 143.562C86.4765 140.635 93.1898 140.882 95.0844 139.684C96.979 138.486 94.0273 137.628 90.111 138.207C86.1947 138.784 84.5015 142.859 78.1833 143.911C71.8651 144.962 66.1817 133.337 66.1817 133.337C70.669 134.392 78.3744 131.418 78.5713 129.882C78.701 128.87 73.684 128.945 69.719 129.021C67.6683 129.059 65.8989 129.098 65.2686 128.987C63.4195 128.66 59.9849 125.247 61.4448 117.841Z" fill="#FFEED9"/>
<path d="M161.527 146.019L154.954 224.165C154.954 224.165 154.266 228.902 157.79 228.911C163.583 228.924 186.626 228.911 186.626 228.911C186.626 228.911 182.265 227.925 182.317 225.706C182.38 223.091 190 145.28 190 145.28L161.527 146.019Z" fill="#5763A8"/>
<path d="M188.497 227.492C187.356 227.495 165.348 227.564 159.706 227.492C157.248 227.461 156.816 225.306 156.796 223.911C156.786 223.242 156.871 222.747 156.871 222.747L157.042 220.717L157.476 215.539L157.861 210.966L158.356 205.089L158.773 200.128L163.443 144.6L191.916 143.861C191.916 143.861 188.706 176.424 186.437 200.128C186.183 202.769 185.941 205.302 185.719 207.666C185.648 208.42 185.577 209.158 185.511 209.876C185.299 212.119 185.107 214.178 184.94 215.997C184.851 216.955 184.769 217.846 184.696 218.662C184.406 221.858 184.238 223.9 184.235 224.288C184.234 224.514 184.253 224.725 184.29 224.921C184.757 227.411 188.069 227.492 188.497 227.492" fill="#7882BA"/>
<path d="M92.3801 103.494L108.389 167.799L110.58 176.606L118.037 206.557H256.561L229.078 103.494H92.3801Z" fill="#7882BA"/>
<path d="M92.3796 103.494L90.161 104.235L115.087 208.794L118.037 206.558L92.3796 103.494Z" fill="#5763A8"/>
<path d="M115.087 208.794H252.759L256.561 206.557H118.037L115.087 208.794Z" fill="#5763A8"/>
<path d="M163.433 228.94H193.241V227.524H163.433V228.94Z" fill="#7882BA"/>
<path d="M185.51 209.876C185.543 209.521 185.577 209.159 185.611 208.794H185.663L185.51 209.876Z" fill="#99B6E8"/>
<path d="M157.477 215.539L157.862 210.966L158.044 208.794H185.611C185.577 209.159 185.543 209.521 185.51 209.877L157.477 215.539Z" fill="#6873B1"/>
<path d="M188.497 227.492C187.356 227.496 165.348 227.564 159.706 227.492C157.248 227.461 156.816 225.306 156.797 223.911L184.696 218.662C184.407 221.858 184.238 223.9 184.235 224.288C184.234 224.514 184.253 224.725 184.291 224.921C184.758 227.411 188.069 227.492 188.497 227.492" fill="#6873B1"/>
<path d="M178.888 185.693L118.036 206.557L110.58 176.606L178.888 185.693Z" fill="#5763A8"/>
<path d="M92.3794 103.495H229.078L251.09 186.325H113.007L92.3794 103.495Z" fill="#2E3D56"/>
<path d="M244.469 181.89H117.525L97.8885 106.438L224.616 107.306L244.469 181.89Z" fill="#262B49"/>
<path d="M191.856 151.592V181.888H143.84V151.592H191.856Z" fill="#EE9611"/>
<path d="M215.865 151.592V181.887H167.849V151.592H215.865Z" fill="#F4B85F"/>
<path d="M167.849 156.067L157.728 166.188H143.869V151.591H167.849V156.067Z" fill="#BF780D"/>
<path d="M143.841 151.591L133.046 162.008H157.068L167.849 151.591H143.841" fill="#F4B85F"/>
<path d="M215.865 152.665L167.849 151.592V155.43V156.058L176.776 165.846H215.865V156.102L215.617 155.811H215.865V152.665" fill="#EE9611"/>
<path d="M167.848 151.591L177.349 162.008H224.73L215.865 151.591H167.848Z" fill="#F4B85F"/>
<path d="M84.1793 147.757C84.1793 147.757 84.513 144.12 80.448 144.12C80.448 144.12 81.6797 144.453 82.317 145.121C82.317 145.121 79.7242 143.6 76.9026 145.938C74.081 148.277 75.8342 154.144 74.9761 155.257C74.1182 156.371 70.7767 156.593 71.1851 160.195C71.5935 163.796 81.7896 168.307 81.1349 171.286C81.1349 171.286 85.1307 165.412 82.2736 162.732C82.2736 162.732 83.6662 164.044 83.8081 165.603C83.8081 165.603 84.1859 162.559 82.2488 161.585C80.5344 160.723 79.1302 157.572 79.2786 157.009C79.4271 156.445 84.1793 147.757 84.1793 147.757" fill="#2C3A64"/>
<path d="M80.1775 165.227C80.1775 165.227 83.2144 177.79 86.1956 180.302C87.9875 181.811 93.3156 185.276 93.3156 185.276L91.0994 186.081C91.0994 186.081 83.7093 183.586 82.0548 181.64C80.4003 179.694 75.8704 169.947 75.8704 169.947L80.1775 165.227" fill="#FFB27D"/>
<path d="M97.6583 189.869L96.9444 188.101C96.1791 186.206 94.3399 184.965 92.2961 184.965H79.1303V193.319V228.985H133.592V193.319H102.774C100.524 193.319 98.5004 191.954 97.6583 189.869" fill="#F4B85F"/>
<path d="M87.3454 211.734V208.561L98.4748 203.686V206.928L90.7026 210.124L98.4748 213.32V216.609L87.3454 211.734" fill="white"/>
<path d="M110.04 199.892H113.007L102.82 221.185H99.8541L110.04 199.892Z" fill="white"/>
<path d="M125.378 208.561V211.734L114.248 216.609V213.367L122.021 210.171L114.248 206.975V203.686L125.378 208.561" fill="white"/>
<path d="M51.6341 187.299C51.6609 187.348 51.6893 187.397 51.7178 187.448C52.3824 188.602 53.907 191.432 55.5861 194.53C56.3803 195.999 57.212 197.529 58.0009 198.968C59.3603 201.452 60.5969 203.665 61.3184 204.834C62.0523 206.023 62.5925 206.858 62.8111 207.193L62.8128 207.194C62.8785 207.297 62.8927 207.418 62.8839 207.538C62.8074 208.587 62.8287 209.629 62.9319 210.654C63.9447 220.73 70.7396 226.131 70.7396 226.131L72.7599 226.429C72.7599 226.429 69.901 215.837 69.0587 209.848C68.9165 208.834 68.8543 208.012 68.9041 207.475C69.0533 205.914 68.7761 203.624 68.252 200.994C67.3191 196.321 65.6079 190.585 64.1206 185.993C64.0265 185.7 61.1851 175.423 61.1851 175.423C58.8005 177.507 50.1025 178.368 50.1025 178.368C50.1025 178.368 48.6277 181.952 51.6341 187.299" fill="#2E3D56"/>
<path d="M77.0003 228.985H68.5682C68.5682 228.985 68.366 227.7 68.8065 226.726C69.2285 225.79 69.83 225.76 68.8832 224.293C69.419 224.845 71.1415 225.073 72.3605 224.91C72.5098 225.151 73.3235 226.776 73.8224 227.134C74.3735 227.53 76.8306 227.389 77.0003 228.985" fill="#262B49"/>
<path d="M51.634 187.299C51.6607 187.348 51.6891 187.397 51.7176 187.448C52.3822 188.603 55.9762 195.24 57.6554 198.337C55.7096 190.332 57.0629 182.328 57.0629 182.328L51.634 187.299Z" fill="#233862"/>
<path d="M83.0294 147.246C83.0846 147.024 78.2134 149.448 77.9664 149.722C75.6819 152.256 76.3333 155.562 77.6405 155.594C78.4789 155.615 78.3164 157.009 78.3164 157.009L87.6561 153.058C87.6561 153.058 86.5315 146.501 83.0294 147.246" fill="#2C3A64"/>
<path d="M79.891 163.34C79.891 163.34 81.3123 166.178 81.1348 168.483C81.1348 168.483 79.421 171.188 74.9763 171.873C74.9763 171.873 78.7977 163.338 79.891 163.34Z" fill="#C2185B"/>
<path d="M58.2079 178.995L58.2364 177.417C55.0943 177.815 47.4024 173.663 47.4024 173.663C47.4024 173.663 44.1151 175.849 43.6651 182.094C43.4455 185.141 42.0559 198.029 41.9023 201.878C41.8463 203.273 41.8276 204.269 41.8212 204.666L41.8217 204.67C41.8198 204.791 41.7628 204.899 41.6881 204.994C41.0379 205.821 40.474 206.696 39.9855 207.605C35.1909 216.525 37.6982 228.647 37.6982 228.647L38.8116 228.364C38.8116 228.364 42.8657 215.798 45.5154 210.362C45.9651 209.44 46.3736 208.724 46.7153 208.308C47.7116 207.098 48.7622 205.044 49.7977 202.571C51.7549 197.895 58.2079 178.995 58.2079 178.995" fill="#2E3D56"/>
<path d="M44.4032 228.985H35.9712C35.9712 228.985 35.769 227.7 36.2094 226.726C36.6315 225.79 37.2925 225.365 37.1342 224.232C37.67 224.784 38.5433 225.402 39.7623 225.238C39.9116 225.48 40.7265 226.776 41.2254 227.134C41.7764 227.53 44.2336 227.389 44.4032 228.985" fill="#262B49"/>
<path d="M74.4069 173.684C73.2743 173.877 74.5918 174.778 73.034 174.947C70.8169 175.188 68.5276 175.354 67.3284 175.832C66.8911 176.007 66.5986 176.222 66.5073 176.498C65.9874 178.061 62.6955 180.747 62.6955 180.747C48.0128 180.078 47.0671 173.535 47.0671 173.535C56.5964 164.279 64.7033 159.235 71.4034 158.61C73.034 158.458 75.232 158.663 76.2632 159.121C78.6065 160.165 79.8908 163.34 79.8908 163.34C79.8908 163.34 78.7105 172.95 74.4069 173.684" fill="#C2185B"/>
<path d="M73.034 174.947C70.8169 175.189 68.5277 175.354 67.3285 175.832C66.8384 168.51 70.2941 163.002 70.2941 163.002C70.2941 163.002 72.5484 172.176 73.034 174.947Z" fill="#9F144B"/>
<path d="M74.9467 161.762C74.9467 161.762 69.3711 161.457 68.3804 164.959C67.3896 168.459 70.239 182.432 70.8532 183.874C71.9712 186.5 77.4137 193.993 77.4137 193.993L79.4152 193.384C79.4152 193.384 75.7862 181.935 74.976 180.803C73.7042 179.025 76.6157 163.285 74.9467 161.762" fill="#FFB27D"/>
<path d="M79.4152 193.384C79.4152 193.384 79.5183 194.272 79.8933 194.729C80.2685 195.187 81.3596 196.297 81.3788 196.946C81.3788 196.946 81.3237 197.234 81.0897 197.181C80.8558 197.128 80.043 196.324 79.6259 196.382C79.6259 196.382 79.8484 197.682 80.0691 198.049C80.2898 198.416 80.1142 199.969 79.9818 200.285C79.8494 200.602 78.2227 198.587 77.5539 197.689C76.8851 196.789 77.5433 193.14 77.5433 193.14L79.4152 193.384" fill="#FFB27D"/>
<path d="M67.2809 169.639C67.2955 169.721 72.5572 170.607 75.8482 168.937C75.8482 168.937 78.5977 160.324 74.6687 160.736C70.7396 161.148 68.413 162.385 68.3141 164.267C68.2151 166.148 67.2809 169.639 67.2809 169.639" fill="#C2185B"/>
<path d="M76.138 159.726C76.5569 161.039 77.9542 164.78 79.8909 163.34C79.825 163.061 80.2319 162.249 80.7117 161.424C81.3248 160.371 82.055 159.293 82.055 159.293L78.8992 156.528L78.7109 156.364C77.8857 157.805 77.0741 158.499 76.3635 159.028C76.1473 159.19 76.056 159.468 76.138 159.726Z" fill="#FFB27D"/>
<path d="M82.0548 159.294C82.0548 159.294 81.3253 160.37 80.712 161.424C78.7505 160.215 78.7484 157.786 78.8995 156.528L82.0548 159.294Z" fill="#ED985F"/>
<path d="M82.142 160.68C82.142 160.68 77.3794 158.03 79.0755 155.089C80.7715 152.149 81.299 149.827 84.4115 151.394C87.524 152.962 87.4625 154.422 87.1351 155.541C86.8078 156.659 83.4247 161.294 82.142 160.68" fill="#FFB27D"/>
<path d="M87.9397 153.826C87.7216 152.521 87.0583 152.395 86.596 152.483C84.837 149.574 81.9634 150.71 81.9634 150.71C80.4287 152.636 78.2097 152.964 78.2097 152.964C78.2097 152.964 78.7624 153.992 81.0395 154.629C81.7352 154.823 82.5246 154.705 83.286 154.449C81.7061 155.331 80.054 155.668 80.054 155.668C83.0547 155.942 85.9099 153.199 86.206 152.905C86.3444 153.331 86.5873 154.221 86.4419 154.871C86.2444 155.756 85.4595 157.357 85.9387 157.564C85.9387 157.564 88.2668 155.784 87.9397 153.826" fill="#2C3A64"/>
<path d="M94.1871 185.282C94.1871 185.282 92.8581 186.279 93.8597 186.931C94.8613 187.582 96.6496 187.759 96.657 187.331C96.6816 185.897 95.9659 184.875 94.1871 185.282Z" fill="#FFB27D"/>
<path d="M270.262 229.595H29.0449C28.9025 229.595 28.7861 229.454 28.7861 229.282V229.216C28.7861 229.043 28.9025 228.902 29.0449 228.902H270.262C270.404 228.902 270.52 229.043 270.52 229.216V229.282C270.52 229.454 270.404 229.595 270.262 229.595Z" fill="#DDE0EE"/>
<path d="M114.899 130.566C114.802 130.166 114.531 129.865 114.24 129.865C113.947 129.866 113.826 130.159 113.926 130.567C114.024 130.971 114.29 131.269 114.585 131.267C114.881 131.267 114.997 130.972 114.899 130.566V130.566ZM113.424 130.569C113.269 129.93 113.548 129.43 114.14 129.428C114.727 129.427 115.245 129.92 115.401 130.565C115.555 131.204 115.279 131.704 114.685 131.705C114.09 131.706 113.58 131.213 113.424 130.569Z" fill="#F99746"/>
<path d="M104.876 114.027L104.511 114.121L104.314 113.725L104.907 113.535H105.242L105.778 115.752L105.294 115.753L104.876 114.027" fill="#94B0ED"/>
<path d="M108.086 114.647C107.989 114.248 107.72 113.946 107.427 113.946C107.135 113.947 107.015 114.24 107.114 114.648C107.211 115.051 107.477 115.35 107.774 115.349C108.069 115.349 108.184 115.053 108.086 114.647V114.647ZM106.611 114.65C106.457 114.011 106.736 113.511 107.327 113.51C107.916 113.508 108.433 114.001 108.589 114.646C108.743 115.285 108.468 115.785 107.873 115.786C107.278 115.787 106.767 115.295 106.611 114.65Z" fill="#94B0ED"/>
<path d="M145.567 113.952L145.202 114.048L145.004 113.652L145.598 113.462L145.931 113.461L146.468 115.678H145.985L145.567 113.952Z" fill="#94B0ED"/>
<path d="M148.777 114.572C148.68 114.174 148.409 113.872 148.117 113.872C147.824 113.874 147.705 114.165 147.803 114.575C147.901 114.977 148.167 115.275 148.463 115.275C148.758 115.275 148.875 114.978 148.777 114.572ZM147.302 114.575C147.147 113.937 147.427 113.436 148.018 113.436C148.606 113.435 149.122 113.928 149.278 114.572C149.434 115.21 149.157 115.711 148.562 115.713C147.967 115.713 147.457 115.22 147.302 114.575" fill="#94B0ED"/>
<path d="M151.733 114.568C151.636 114.169 151.366 113.868 151.073 113.868C150.781 113.868 150.661 114.161 150.76 114.57C150.857 114.972 151.123 115.27 151.42 115.27C151.715 115.27 151.831 114.973 151.733 114.568ZM150.258 114.57C150.103 113.932 150.383 113.431 150.974 113.431C151.562 113.43 152.08 113.923 152.235 114.568C152.39 115.205 152.114 115.707 151.519 115.707C150.925 115.708 150.413 115.215 150.258 114.57Z" fill="#94B0ED"/>
<path d="M166.855 114.572C166.758 114.174 166.487 113.872 166.195 113.872C165.902 113.874 165.782 114.165 165.881 114.575C165.979 114.977 166.245 115.275 166.541 115.275C166.836 115.275 166.953 114.978 166.855 114.572ZM165.378 114.575C165.224 113.937 165.503 113.436 166.096 113.436C166.683 113.435 167.2 113.928 167.356 114.572C167.51 115.21 167.235 115.711 166.64 115.713C166.045 115.713 165.535 115.22 165.378 114.575" fill="#94B0ED"/>
<path d="M169.811 114.568C169.714 114.169 169.444 113.868 169.151 113.868C168.859 113.868 168.739 114.161 168.838 114.57C168.935 114.972 169.201 115.27 169.497 115.27C169.793 115.27 169.909 114.973 169.811 114.568V114.568ZM168.336 114.57C168.181 113.932 168.461 113.431 169.052 113.431C169.64 113.43 170.156 113.923 170.313 114.568C170.468 115.205 170.191 115.707 169.596 115.707C169.003 115.708 168.491 115.215 168.336 114.57Z" fill="#94B0ED"/>
<path d="M172.768 114.563C172.671 114.164 172.4 113.863 172.108 113.863C171.815 113.863 171.695 114.156 171.794 114.565C171.892 114.967 172.158 115.265 172.454 115.265C172.749 115.264 172.866 114.968 172.768 114.563ZM171.291 114.565C171.137 113.928 171.417 113.426 172.009 113.425C172.596 113.425 173.113 113.918 173.269 114.563C173.424 115.2 173.148 115.702 172.553 115.702C171.958 115.703 171.448 115.21 171.291 114.565" fill="#94B0ED"/>
<path d="M193.322 114.512C193.226 114.114 192.954 113.812 192.663 113.812C192.371 113.812 192.249 114.106 192.349 114.514C192.447 114.916 192.713 115.214 193.008 115.214C193.304 115.214 193.421 114.918 193.322 114.512ZM191.847 114.514C191.693 113.876 191.971 113.375 192.564 113.374C193.151 113.374 193.669 113.867 193.824 114.512C193.979 115.15 193.703 115.65 193.109 115.652C192.513 115.653 192.003 115.159 191.847 114.514Z" fill="#94B0ED"/>
<path d="M196.153 114.507C196.055 114.108 195.784 113.806 195.493 113.807C195.199 113.807 195.079 114.1 195.179 114.51C195.277 114.912 195.542 115.21 195.839 115.21C196.134 115.21 196.25 114.913 196.153 114.507ZM194.676 114.51C194.522 113.872 194.801 113.371 195.393 113.369C195.98 113.369 196.498 113.862 196.653 114.507C196.808 115.146 196.532 115.645 195.938 115.646C195.343 115.648 194.833 115.155 194.676 114.51Z" fill="#94B0ED"/>
<path d="M199.23 114.503C199.133 114.103 198.862 113.801 198.571 113.801C198.277 113.803 198.158 114.095 198.257 114.504C198.354 114.906 198.621 115.204 198.916 115.204C199.211 115.204 199.328 114.908 199.23 114.503V114.503ZM197.756 114.504C197.6 113.866 197.879 113.365 198.471 113.365C199.058 113.364 199.576 113.857 199.732 114.501C199.886 115.139 199.61 115.64 199.015 115.642C198.421 115.643 197.911 115.149 197.756 114.504Z" fill="#94B0ED"/>
<path d="M204.255 114.495C204.158 114.094 203.888 113.794 203.595 113.794C203.304 113.794 203.183 114.087 203.283 114.496C203.38 114.898 203.647 115.197 203.942 115.196C204.237 115.196 204.352 114.9 204.255 114.495ZM202.78 114.497C202.625 113.859 202.905 113.357 203.496 113.357C204.085 113.356 204.602 113.849 204.757 114.493C204.912 115.132 204.636 115.632 204.042 115.633C203.447 115.634 202.935 115.141 202.78 114.497Z" fill="#94B0ED"/>
<path d="M205.963 113.866L205.597 113.961L205.4 113.565L205.994 113.375L206.328 113.374L206.864 115.591L206.381 115.592L205.963 113.866" fill="#94B0ED"/>
<path d="M209.175 114.486C209.077 114.086 208.807 113.785 208.514 113.785C208.221 113.786 208.102 114.078 208.201 114.487C208.299 114.89 208.565 115.188 208.861 115.188C209.156 115.187 209.273 114.891 209.175 114.486ZM207.699 114.488C207.544 113.85 207.823 113.349 208.415 113.348C209.002 113.347 209.52 113.84 209.676 114.485C209.83 115.123 209.554 115.624 208.96 115.625C208.365 115.626 207.854 115.133 207.699 114.488" fill="#94B0ED"/>
<path d="M214.099 114.473C214.002 114.074 213.733 113.772 213.439 113.773C213.147 113.773 213.027 114.066 213.127 114.475C213.224 114.877 213.49 115.176 213.786 115.175C214.083 115.175 214.197 114.879 214.099 114.473V114.473ZM212.624 114.476C212.47 113.837 212.75 113.337 213.34 113.336C213.928 113.335 214.446 113.828 214.602 114.472C214.756 115.11 214.48 115.611 213.886 115.612C213.291 115.613 212.78 115.12 212.624 114.476" fill="#94B0ED"/>
<path d="M128.837 119.406C128.74 119.006 128.47 118.704 128.177 118.706C127.885 118.706 127.765 118.999 127.865 119.407C127.961 119.81 128.227 120.108 128.523 120.108C128.82 120.107 128.935 119.812 128.837 119.406V119.406ZM127.362 119.408C127.207 118.769 127.487 118.269 128.078 118.268C128.666 118.267 129.183 118.761 129.339 119.404C129.494 120.043 129.217 120.543 128.623 120.545C128.029 120.546 127.518 120.053 127.362 119.408Z" fill="#94B0ED"/>
<path d="M131.794 119.401C131.697 119.001 131.426 118.699 131.134 118.701C130.841 118.701 130.721 118.994 130.82 119.402C130.919 119.805 131.185 120.103 131.48 120.103C131.776 120.102 131.892 119.807 131.794 119.401V119.401ZM130.318 119.403C130.163 118.764 130.443 118.264 131.035 118.263C131.622 118.262 132.14 118.756 132.295 119.399C132.45 120.038 132.174 120.538 131.579 120.54C130.985 120.541 130.475 120.048 130.318 119.403Z" fill="#94B0ED"/>
<path d="M205.415 119.286C205.318 118.887 205.048 118.585 204.755 118.586C204.463 118.586 204.342 118.879 204.442 119.288C204.54 119.691 204.806 119.989 205.101 119.988C205.397 119.988 205.513 119.692 205.415 119.286ZM203.94 119.289C203.785 118.65 204.063 118.15 204.657 118.149C205.244 118.148 205.761 118.641 205.917 119.286C206.071 119.924 205.795 120.424 205.201 120.425C204.606 120.426 204.096 119.933 203.94 119.289" fill="#94B0ED"/>
<path d="M207.124 118.656L206.759 118.751L206.561 118.356L207.155 118.166L207.489 118.165L208.026 120.382L207.543 120.383L207.124 118.656" fill="#94B0ED"/>
<path d="M210.334 119.277C210.237 118.878 209.967 118.576 209.674 118.577C209.382 118.577 209.263 118.87 209.361 119.279C209.459 119.681 209.725 119.98 210.02 119.979C210.317 119.979 210.432 119.683 210.334 119.277ZM208.859 119.28C208.705 118.641 208.984 118.141 209.574 118.14C210.163 118.139 210.68 118.632 210.836 119.276C210.991 119.915 210.714 120.415 210.119 120.416C209.526 120.417 209.015 119.924 208.859 119.28Z" fill="#94B0ED"/>
<path d="M221.172 119.255C221.075 118.856 220.804 118.554 220.513 118.555C220.221 118.555 220.1 118.848 220.2 119.257C220.298 119.659 220.563 119.957 220.859 119.957C221.154 119.957 221.27 119.661 221.172 119.255V119.255ZM219.698 119.258C219.542 118.619 219.822 118.119 220.414 118.118C221.001 118.116 221.519 118.61 221.674 119.254C221.829 119.893 221.553 120.393 220.958 120.394C220.364 120.395 219.853 119.902 219.698 119.258Z" fill="#94B0ED"/>
<path d="M222.883 118.625L222.516 118.72L222.32 118.324L222.913 118.135L223.246 118.134L223.783 120.351L223.3 120.352L222.883 118.625Z" fill="#94B0ED"/>
<path d="M126.349 145.275C126.252 144.876 125.983 144.575 125.69 144.575C125.398 144.575 125.278 144.868 125.377 145.277C125.474 145.679 125.741 145.977 126.037 145.977C126.332 145.976 126.447 145.681 126.349 145.275ZM124.874 145.277C124.72 144.64 124.999 144.138 125.59 144.137C126.179 144.137 126.696 144.63 126.852 145.275C127.006 145.912 126.73 146.414 126.136 146.414C125.541 146.415 125.03 145.922 124.874 145.277" fill="#94B0ED"/>
<path d="M129.306 145.27C129.209 144.87 128.94 144.57 128.647 144.57C128.354 144.57 128.235 144.863 128.333 145.272C128.431 145.674 128.697 145.972 128.992 145.972C129.288 145.971 129.404 145.676 129.306 145.27ZM127.831 145.272C127.677 144.635 127.956 144.133 128.547 144.132C129.136 144.132 129.652 144.625 129.809 145.27C129.963 145.907 129.686 146.409 129.092 146.409C128.497 146.41 127.987 145.917 127.831 145.272" fill="#94B0ED"/>
<path d="M131.014 144.641L130.649 144.736L130.451 144.34L131.045 144.15H131.378L131.915 146.367H131.432L131.014 144.641Z" fill="#94B0ED"/>
<path d="M137.181 145.256C137.084 144.858 136.814 144.556 136.521 144.556C136.228 144.558 136.109 144.849 136.208 145.259C136.306 145.661 136.572 145.959 136.867 145.959C137.163 145.959 137.279 145.662 137.181 145.256ZM135.706 145.259C135.552 144.621 135.831 144.12 136.422 144.12C137.011 144.119 137.527 144.611 137.684 145.256C137.838 145.894 137.561 146.395 136.966 146.397C136.372 146.397 135.862 145.904 135.706 145.259" fill="#94B0ED"/>
<path d="M140.137 145.251C140.041 144.853 139.77 144.551 139.479 144.551C139.186 144.551 139.065 144.844 139.165 145.254C139.262 145.656 139.529 145.954 139.824 145.954C140.12 145.954 140.235 145.657 140.137 145.251V145.251ZM138.662 145.254C138.508 144.616 138.787 144.115 139.378 144.115C139.967 144.114 140.484 144.607 140.64 145.251C140.794 145.889 140.518 146.39 139.924 146.39C139.329 146.392 138.818 145.899 138.662 145.254Z" fill="#94B0ED"/>
<path d="M143.094 145.246C142.997 144.848 142.728 144.546 142.435 144.546C142.142 144.546 142.023 144.839 142.121 145.249C142.219 145.651 142.485 145.949 142.78 145.949C143.076 145.949 143.192 145.652 143.094 145.246ZM141.619 145.249C141.465 144.611 141.744 144.11 142.335 144.11C142.924 144.109 143.44 144.602 143.597 145.246C143.751 145.884 143.474 146.385 142.88 146.385C142.285 146.387 141.775 145.894 141.619 145.249Z" fill="#94B0ED"/>
<path d="M180.005 145.274C179.908 144.876 179.637 144.574 179.346 144.574C179.053 144.574 178.933 144.867 179.032 145.277C179.129 145.679 179.396 145.977 179.692 145.977C179.987 145.976 180.103 145.68 180.005 145.274V145.274ZM178.531 145.277C178.375 144.64 178.654 144.138 179.247 144.137C179.834 144.137 180.351 144.63 180.506 145.274C180.661 145.912 180.385 146.414 179.791 146.414C179.196 146.415 178.685 145.922 178.531 145.277Z" fill="#94B0ED"/>
<path d="M182.961 145.269C182.865 144.87 182.595 144.569 182.301 144.569C182.01 144.569 181.89 144.862 181.989 145.272C182.086 145.674 182.352 145.972 182.649 145.972C182.944 145.971 183.059 145.675 182.961 145.269ZM181.486 145.272C181.332 144.634 181.612 144.133 182.202 144.131C182.791 144.131 183.309 144.624 183.464 145.269C183.619 145.907 183.343 146.408 182.748 146.408C182.153 146.409 181.643 145.917 181.486 145.272" fill="#94B0ED"/>
<path d="M184.67 144.641L184.305 144.736L184.107 144.34L184.7 144.15H185.034L185.571 146.367H185.088L184.67 144.641" fill="#94B0ED"/>
<path d="M199.826 145.274C199.73 144.876 199.459 144.574 199.166 144.574C198.874 144.574 198.755 144.867 198.854 145.277C198.95 145.679 199.216 145.977 199.514 145.977C199.808 145.976 199.924 145.68 199.826 145.274ZM198.351 145.277C198.197 144.639 198.476 144.138 199.067 144.137C199.656 144.137 200.174 144.63 200.329 145.274C200.483 145.912 200.208 146.414 199.613 146.414C199.018 146.415 198.508 145.922 198.351 145.277Z" fill="#94B0ED"/>
<path d="M202.783 145.27C202.686 144.87 202.415 144.57 202.124 144.57C201.83 144.57 201.711 144.863 201.81 145.272C201.908 145.674 202.174 145.972 202.469 145.972C202.765 145.971 202.882 145.676 202.783 145.27ZM201.309 145.272C201.152 144.635 201.433 144.133 202.024 144.132C202.612 144.132 203.129 144.625 203.285 145.27C203.439 145.907 203.164 146.409 202.568 146.409C201.974 146.41 201.464 145.917 201.309 145.272" fill="#94B0ED"/>
<path d="M204.491 144.641L204.126 144.737L203.927 144.341L204.521 144.151H204.854L205.392 146.367H204.909L204.491 144.641" fill="#94B0ED"/>
<path d="M190.836 145.256C190.738 144.858 190.469 144.556 190.175 144.556C189.884 144.558 189.764 144.849 189.863 145.259C189.96 145.661 190.226 145.959 190.523 145.959C190.818 145.959 190.934 145.662 190.836 145.256ZM189.36 145.259C189.206 144.621 189.485 144.12 190.076 144.12C190.665 144.119 191.182 144.611 191.337 145.256C191.492 145.894 191.216 146.395 190.622 146.397C190.027 146.397 189.516 145.904 189.36 145.259Z" fill="#94B0ED"/>
<path d="M193.792 145.252C193.696 144.853 193.425 144.551 193.133 144.551C192.84 144.551 192.72 144.844 192.82 145.254C192.918 145.656 193.183 145.954 193.479 145.954C193.775 145.954 193.891 145.657 193.792 145.252V145.252ZM192.318 145.254C192.162 144.616 192.442 144.115 193.034 144.115C193.622 144.114 194.138 144.607 194.294 145.252C194.45 145.889 194.173 146.39 193.578 146.39C192.984 146.392 192.474 145.899 192.318 145.254Z" fill="#94B0ED"/>
<path d="M196.748 145.246C196.652 144.848 196.383 144.546 196.089 144.546C195.798 144.546 195.677 144.839 195.776 145.249C195.874 145.651 196.139 145.949 196.436 145.949C196.731 145.949 196.847 145.652 196.748 145.246V145.246ZM195.274 145.249C195.119 144.611 195.399 144.11 195.989 144.11C196.578 144.109 197.095 144.602 197.252 145.246C197.406 145.884 197.13 146.385 196.535 146.385C195.941 146.387 195.429 145.894 195.274 145.249" fill="#94B0ED"/>
<path d="M153.205 145.197C153.108 144.798 152.839 144.496 152.545 144.496C152.254 144.497 152.134 144.79 152.233 145.199C152.33 145.601 152.596 145.9 152.892 145.899C153.188 145.899 153.303 145.602 153.205 145.197V145.197ZM151.73 145.2C151.576 144.561 151.855 144.061 152.446 144.06C153.035 144.058 153.552 144.551 153.708 145.196C153.862 145.835 153.586 146.335 152.992 146.336C152.397 146.338 151.886 145.843 151.73 145.2Z" fill="#94B0ED"/>
<path d="M154.915 144.568L154.549 144.663L154.352 144.267L154.945 144.077H155.279L155.816 146.293L155.333 146.295L154.915 144.568" fill="#94B0ED"/>
<path d="M158.124 145.189C158.027 144.789 157.756 144.487 157.464 144.489C157.171 144.489 157.052 144.782 157.151 145.19C157.249 145.593 157.515 145.891 157.81 145.891C158.106 145.89 158.222 145.595 158.124 145.189V145.189ZM156.649 145.191C156.495 144.552 156.773 144.052 157.365 144.051C157.954 144.05 158.47 144.543 158.625 145.188C158.781 145.826 158.504 146.327 157.909 146.328C157.315 146.329 156.805 145.836 156.649 145.191Z" fill="#94B0ED"/>
<path d="M216.601 145.128C216.504 144.728 216.234 144.427 215.942 144.428C215.65 144.428 215.53 144.721 215.629 145.129C215.726 145.531 215.993 145.83 216.288 145.829C216.583 145.829 216.699 145.534 216.601 145.128ZM215.127 145.13C214.972 144.492 215.251 143.991 215.843 143.99C216.431 143.989 216.949 144.482 217.103 145.127C217.258 145.765 216.982 146.266 216.388 146.267C215.793 146.268 215.282 145.775 215.127 145.13Z" fill="#94B0ED"/>
<path d="M218.311 144.498L217.946 144.593L217.749 144.197L218.342 144.008L218.675 144.007L219.213 146.223L218.73 146.224L218.311 144.498" fill="#94B0ED"/>
<path d="M221.52 145.119C221.423 144.719 221.152 144.418 220.861 144.419C220.568 144.419 220.448 144.712 220.547 145.12C220.645 145.524 220.91 145.822 221.207 145.822C221.502 145.82 221.619 145.525 221.52 145.119V145.119ZM220.046 145.121C219.891 144.483 220.169 143.983 220.761 143.981C221.349 143.981 221.866 144.474 222.021 145.118C222.176 145.757 221.901 146.257 221.306 146.258C220.711 146.259 220.201 145.766 220.046 145.121" fill="#94B0ED"/>
<path d="M107.385 124.384L107.02 124.479L106.822 124.083L107.416 123.893H107.749L108.286 126.109L107.803 126.111L107.385 124.384" fill="#94B0ED"/>
<path d="M110.595 125.005C110.498 124.605 110.228 124.303 109.935 124.305C109.643 124.305 109.523 124.598 109.621 125.006C109.719 125.409 109.985 125.707 110.281 125.707C110.576 125.706 110.693 125.411 110.595 125.005V125.005ZM109.12 125.007C108.965 124.368 109.245 123.868 109.836 123.867C110.424 123.866 110.94 124.359 111.097 125.003C111.252 125.642 110.975 126.142 110.38 126.144C109.786 126.145 109.275 125.652 109.12 125.007Z" fill="#94B0ED"/>
<path d="M127.34 124.976C127.243 124.577 126.972 124.275 126.68 124.276C126.387 124.276 126.267 124.569 126.366 124.978C126.464 125.381 126.731 125.679 127.026 125.678C127.321 125.678 127.438 125.382 127.34 124.976ZM125.864 124.979C125.709 124.34 125.989 123.84 126.581 123.839C127.168 123.838 127.686 124.33 127.841 124.975C127.996 125.614 127.72 126.114 127.125 126.115C126.531 126.117 126.021 125.624 125.864 124.979Z" fill="#94B0ED"/>
<path d="M130.296 124.972C130.199 124.572 129.929 124.27 129.636 124.272C129.344 124.272 129.224 124.565 129.323 124.973C129.42 125.376 129.686 125.674 129.982 125.674C130.278 125.673 130.394 125.378 130.296 124.972V124.972ZM128.821 124.974C128.666 124.335 128.946 123.835 129.537 123.834C130.125 123.833 130.641 124.326 130.798 124.971C130.953 125.609 130.676 126.109 130.081 126.111C129.488 126.112 128.976 125.619 128.821 124.974Z" fill="#94B0ED"/>
<path d="M133.253 124.967C133.156 124.567 132.885 124.265 132.593 124.267C132.3 124.267 132.18 124.56 132.279 124.968C132.378 125.37 132.644 125.669 132.939 125.668C133.234 125.668 133.351 125.372 133.253 124.967ZM131.777 124.969C131.622 124.33 131.902 123.83 132.494 123.829C133.081 123.828 133.599 124.32 133.754 124.965C133.909 125.604 133.633 126.104 133.038 126.106C132.444 126.107 131.934 125.614 131.777 124.969Z" fill="#94B0ED"/>
<path d="M134.961 124.338L134.595 124.432L134.398 124.036L134.991 123.847L135.325 123.846L135.862 126.063L135.379 126.064L134.961 124.338" fill="#94B0ED"/>
<path d="M136.938 124.334L136.573 124.43L136.375 124.034L136.969 123.844L137.302 123.842L137.839 126.059L137.356 126.06L136.938 124.334Z" fill="#94B0ED"/>
<path d="M140.148 124.955C140.051 124.556 139.781 124.254 139.488 124.254C139.196 124.254 139.076 124.547 139.174 124.957C139.272 125.359 139.538 125.657 139.834 125.657C140.129 125.656 140.246 125.36 140.148 124.955ZM138.673 124.957C138.518 124.319 138.798 123.818 139.389 123.817C139.977 123.817 140.494 124.31 140.65 124.955C140.805 125.592 140.528 126.094 139.933 126.094C139.34 126.095 138.829 125.602 138.673 124.957" fill="#94B0ED"/>
<path d="M216.607 124.831C216.51 124.431 216.24 124.13 215.948 124.131C215.656 124.131 215.536 124.424 215.634 124.833C215.732 125.235 215.997 125.533 216.293 125.533C216.589 125.532 216.705 125.236 216.607 124.831ZM215.133 124.833C214.978 124.195 215.257 123.694 215.848 123.693C216.437 123.692 216.953 124.185 217.109 124.83C217.264 125.468 216.986 125.969 216.392 125.97C215.797 125.971 215.287 125.478 215.133 124.833" fill="#F99746"/>
<path d="M219.565 124.825C219.469 124.426 219.198 124.124 218.907 124.125C218.613 124.125 218.493 124.418 218.592 124.827C218.69 125.229 218.957 125.528 219.252 125.527C219.548 125.527 219.663 125.231 219.565 124.825V124.825ZM218.089 124.828C217.935 124.189 218.215 123.689 218.807 123.687C219.394 123.687 219.911 124.18 220.068 124.824C220.222 125.463 219.945 125.963 219.351 125.964C218.756 125.965 218.247 125.472 218.089 124.828Z" fill="#F99746"/>
<path d="M222.52 124.821C222.423 124.422 222.153 124.12 221.862 124.121C221.57 124.121 221.448 124.414 221.547 124.823C221.644 125.225 221.911 125.523 222.206 125.523C222.502 125.523 222.619 125.227 222.52 124.821ZM221.046 124.823C220.891 124.185 221.17 123.684 221.761 123.684C222.35 123.683 222.866 124.176 223.023 124.82C223.178 125.458 222.901 125.959 222.306 125.96C221.712 125.961 221.201 125.468 221.046 124.823" fill="#94B0ED"/>
<path d="M224.229 124.192L223.865 124.287L223.666 123.891L224.259 123.701L224.594 123.7L225.13 125.917L224.647 125.918L224.229 124.192" fill="#94B0ED"/>
<path d="M108.732 129.951L108.367 130.045L108.169 129.649L108.763 129.459H109.096L109.633 131.676L109.15 131.677L108.732 129.951" fill="#94B0ED"/>
<path d="M111.942 130.571C111.845 130.171 111.576 129.87 111.283 129.871C110.991 129.871 110.871 130.164 110.97 130.572C111.067 130.976 111.333 131.273 111.628 131.272C111.925 131.272 112.04 130.977 111.942 130.571V130.571ZM110.467 130.573C110.313 129.935 110.592 129.434 111.183 129.433C111.772 129.432 112.289 129.925 112.445 130.57C112.599 131.208 112.322 131.709 111.729 131.71C111.134 131.711 110.623 131.218 110.467 130.573Z" fill="#94B0ED"/>
<path d="M125.73 130.548C125.633 130.148 125.363 129.846 125.07 129.848C124.779 129.848 124.658 130.141 124.758 130.549C124.855 130.952 125.121 131.25 125.417 131.25C125.713 131.249 125.828 130.953 125.73 130.548V130.548ZM124.255 130.55C124.101 129.911 124.38 129.411 124.971 129.41C125.56 129.409 126.077 129.902 126.233 130.546C126.387 131.185 126.111 131.685 125.517 131.687C124.922 131.688 124.411 131.195 124.255 130.55Z" fill="#94B0ED"/>
<path d="M128.687 130.543C128.59 130.143 128.319 129.841 128.027 129.843C127.734 129.843 127.615 130.136 127.713 130.544C127.812 130.947 128.078 131.245 128.373 131.245C128.669 131.244 128.785 130.948 128.687 130.543V130.543ZM127.212 130.545C127.058 129.906 127.336 129.406 127.928 129.405C128.517 129.404 129.033 129.897 129.188 130.541C129.344 131.18 129.067 131.68 128.472 131.682C127.878 131.683 127.368 131.19 127.212 130.545Z" fill="#94B0ED"/>
<path d="M117.474 141.318C117.377 140.919 117.107 140.617 116.814 140.617C116.523 140.618 116.402 140.91 116.5 141.32C116.599 141.722 116.865 142.021 117.16 142.02C117.456 142.02 117.572 141.723 117.474 141.318V141.318ZM115.999 141.321C115.845 140.682 116.124 140.182 116.715 140.181C117.303 140.179 117.82 140.672 117.977 141.317C118.131 141.955 117.854 142.456 117.259 142.457C116.665 142.457 116.155 141.965 115.999 141.321Z" fill="#F99746"/>
<path d="M119.182 140.689L118.818 140.784L118.619 140.388L119.212 140.198H119.547L120.083 142.414L119.6 142.416L119.182 140.689" fill="#F99746"/>
<path d="M109.96 135.135L109.594 135.231L109.397 134.835L109.99 134.645H110.324L110.861 136.862H110.378L109.96 135.135Z" fill="#94B0ED"/>
<path d="M113.169 135.757C113.072 135.357 112.803 135.056 112.51 135.056C112.218 135.057 112.098 135.35 112.197 135.758C112.294 136.16 112.56 136.46 112.855 136.458C113.152 136.458 113.267 136.162 113.169 135.757V135.757ZM111.694 135.759C111.54 135.121 111.819 134.62 112.41 134.619C112.999 134.618 113.515 135.111 113.672 135.756C113.826 136.395 113.549 136.895 112.956 136.896C112.361 136.897 111.85 136.403 111.694 135.759Z" fill="#94B0ED"/>
<path d="M116.126 135.752C116.03 135.352 115.759 135.051 115.467 135.051C115.174 135.052 115.054 135.344 115.153 135.753C115.251 136.155 115.517 136.455 115.813 136.453C116.108 136.453 116.225 136.157 116.126 135.752V135.752ZM114.65 135.755C114.496 135.116 114.775 134.616 115.368 134.614C115.955 134.613 116.472 135.106 116.628 135.751C116.782 136.39 116.507 136.89 115.912 136.891C115.317 136.891 114.807 136.398 114.65 135.755Z" fill="#94B0ED"/>
<path d="M117.834 135.123L117.469 135.218L117.271 134.822L117.865 134.632H118.198L118.735 136.848L118.252 136.849L117.834 135.123" fill="#94B0ED"/>
<path d="M121.044 135.743C120.947 135.344 120.677 135.042 120.384 135.043C120.093 135.043 119.972 135.336 120.072 135.745C120.169 136.147 120.435 136.446 120.731 136.445C121.027 136.445 121.142 136.149 121.044 135.743ZM119.569 135.746C119.415 135.107 119.694 134.607 120.285 134.606C120.874 134.604 121.391 135.097 121.547 135.742C121.701 136.381 121.425 136.881 120.831 136.882C120.236 136.884 119.725 136.391 119.569 135.746Z" fill="#94B0ED"/>
<path d="M124.001 135.738C123.904 135.339 123.633 135.037 123.341 135.037C123.048 135.038 122.928 135.331 123.028 135.74C123.126 136.142 123.392 136.441 123.687 136.44C123.983 136.44 124.099 136.144 124.001 135.738V135.738ZM122.525 135.741C122.37 135.102 122.65 134.602 123.242 134.601C123.829 134.599 124.347 135.092 124.502 135.737C124.657 136.376 124.381 136.876 123.786 136.877C123.192 136.879 122.682 136.386 122.525 135.741Z" fill="#94B0ED"/>
<path d="M126.957 135.734C126.86 135.334 126.591 135.032 126.298 135.032C126.006 135.034 125.886 135.327 125.985 135.735C126.082 136.137 126.348 136.436 126.645 136.435C126.94 136.435 127.055 136.14 126.957 135.734V135.734ZM125.482 135.736C125.328 135.097 125.607 134.597 126.198 134.596C126.787 134.595 127.304 135.088 127.46 135.733C127.614 136.371 127.338 136.872 126.744 136.873C126.149 136.874 125.638 136.381 125.482 135.736Z" fill="#94B0ED"/>
<path d="M129.914 135.729C129.818 135.329 129.547 135.028 129.255 135.028C128.962 135.029 128.843 135.322 128.941 135.73C129.039 136.132 129.305 136.431 129.601 136.43C129.896 136.43 130.013 136.134 129.914 135.729V135.729ZM128.44 135.731C128.285 135.093 128.563 134.592 129.156 134.591C129.743 134.59 130.26 135.083 130.416 135.728C130.572 136.366 130.294 136.867 129.7 136.868C129.105 136.869 128.595 136.375 128.44 135.731Z" fill="#94B0ED"/>
<path d="M132.87 135.724C132.773 135.324 132.504 135.023 132.211 135.023C131.919 135.024 131.799 135.316 131.898 135.725C131.995 136.127 132.261 136.426 132.558 136.425C132.853 136.425 132.968 136.128 132.87 135.724V135.724ZM131.395 135.726C131.241 135.088 131.52 134.587 132.111 134.586C132.7 134.585 133.217 135.078 133.373 135.723C133.527 136.36 133.251 136.862 132.657 136.863C132.062 136.864 131.551 136.37 131.395 135.726Z" fill="#94B0ED"/>
<path d="M135.827 135.719C135.731 135.319 135.46 135.018 135.168 135.018C134.875 135.019 134.756 135.311 134.854 135.72C134.952 136.122 135.218 136.422 135.514 136.42C135.809 136.42 135.925 136.124 135.827 135.719V135.719ZM134.353 135.722C134.198 135.083 134.478 134.583 135.069 134.581C135.657 134.58 136.173 135.073 136.329 135.718C136.485 136.355 136.207 136.857 135.613 136.858C135.018 136.858 134.508 136.365 134.353 135.722Z" fill="#94B0ED"/>
<path d="M137.535 135.09L137.17 135.184L136.973 134.788L137.566 134.598H137.899L138.436 136.815L137.953 136.816L137.535 135.09" fill="#94B0ED"/>
<path d="M139.513 135.086L139.147 135.181L138.95 134.785L139.543 134.596L139.877 134.595L140.414 136.812L139.931 136.813L139.513 135.086" fill="#94B0ED"/>
<path d="M142.723 135.707C142.626 135.307 142.356 135.005 142.063 135.007C141.771 135.007 141.651 135.3 141.75 135.708C141.847 136.111 142.113 136.409 142.41 136.409C142.706 136.408 142.821 136.113 142.723 135.707V135.707ZM141.248 135.709C141.093 135.07 141.373 134.57 141.964 134.569C142.552 134.568 143.07 135.062 143.225 135.705C143.38 136.344 143.104 136.844 142.509 136.846C141.915 136.847 141.404 136.354 141.248 135.709Z" fill="#94B0ED"/>
<path d="M111.307 140.701L110.943 140.797L110.744 140.401L111.338 140.211H111.672L112.208 142.428H111.725L111.307 140.701" fill="#94B0ED"/>
<path d="M114.517 141.323C114.42 140.923 114.15 140.622 113.858 140.622C113.565 140.623 113.445 140.916 113.545 141.324C113.641 141.727 113.909 142.026 114.204 142.024C114.5 142.024 114.615 141.728 114.517 141.323V141.323ZM113.042 141.326C112.887 140.687 113.167 140.187 113.758 140.185C114.346 140.184 114.864 140.677 115.019 141.322C115.174 141.961 114.898 142.461 114.303 142.462C113.709 142.463 113.199 141.969 113.042 141.326Z" fill="#94B0ED"/>
<path d="M122.391 141.31C122.296 140.91 122.025 140.608 121.733 140.608C121.44 140.61 121.32 140.903 121.419 141.311C121.516 141.713 121.783 142.012 122.079 142.011C122.374 142.011 122.491 141.716 122.391 141.31V141.31ZM120.916 141.312C120.762 140.673 121.042 140.173 121.632 140.172C122.221 140.171 122.738 140.664 122.894 141.309C123.049 141.947 122.773 142.448 122.178 142.449C121.583 142.45 121.073 141.957 120.916 141.312Z" fill="#94B0ED"/>
<path d="M125.349 141.305C125.252 140.905 124.982 140.603 124.689 140.603C124.397 140.605 124.277 140.898 124.375 141.306C124.473 141.708 124.739 142.007 125.035 142.006C125.33 142.006 125.447 141.71 125.349 141.305V141.305ZM123.874 141.307C123.719 140.668 123.999 140.168 124.59 140.167C125.178 140.166 125.695 140.659 125.851 141.303C126.006 141.942 125.729 142.442 125.134 142.444C124.54 142.445 124.03 141.951 123.874 141.307Z" fill="#94B0ED"/>
<path d="M120.088 153.66C119.992 153.26 119.721 152.958 119.429 152.96C119.136 152.96 119.016 153.253 119.116 153.661C119.212 154.064 119.48 154.362 119.775 154.362C120.071 154.361 120.187 154.065 120.088 153.66V153.66ZM118.613 153.662C118.458 153.023 118.738 152.523 119.329 152.522C119.917 152.521 120.435 153.013 120.59 153.658C120.745 154.297 120.469 154.797 119.874 154.799C119.28 154.8 118.77 154.307 118.613 153.662" fill="#94B0ED"/>
<path d="M121.797 153.031L121.431 153.125L121.234 152.729L121.827 152.54L122.161 152.539L122.698 154.756L122.215 154.757L121.797 153.031" fill="#94B0ED"/>
<path d="M113.922 153.044L113.557 153.138L113.359 152.742L113.953 152.552H114.286L114.823 154.769L114.34 154.77L113.922 153.044" fill="#94B0ED"/>
<path d="M117.132 153.664C117.035 153.265 116.765 152.963 116.472 152.964C116.179 152.964 116.06 153.257 116.158 153.666C116.256 154.069 116.522 154.367 116.818 154.367C117.113 154.366 117.23 154.07 117.132 153.664V153.664ZM115.657 153.667C115.502 153.028 115.782 152.528 116.373 152.527C116.961 152.525 117.478 153.019 117.634 153.663C117.789 154.302 117.512 154.802 116.917 154.803C116.323 154.805 115.813 154.312 115.657 153.667" fill="#94B0ED"/>
<path d="M125.007 153.651C124.91 153.251 124.64 152.95 124.347 152.951C124.054 152.951 123.935 153.244 124.033 153.652C124.131 154.056 124.397 154.353 124.693 154.353C124.988 154.352 125.105 154.057 125.007 153.651V153.651ZM123.532 153.653C123.377 153.015 123.657 152.514 124.248 152.513C124.836 152.513 125.352 153.006 125.509 153.65C125.664 154.288 125.387 154.789 124.792 154.79C124.197 154.791 123.687 154.298 123.532 153.653Z" fill="#F99746"/>
<path d="M127.962 153.646C127.867 153.246 127.596 152.945 127.304 152.946C127.011 152.946 126.891 153.239 126.99 153.647C127.087 154.05 127.354 154.348 127.65 154.348C127.945 154.347 128.062 154.052 127.962 153.646V153.646ZM126.488 153.648C126.333 153.01 126.613 152.509 127.204 152.508C127.792 152.508 128.309 153.001 128.465 153.645C128.62 154.283 128.344 154.784 127.749 154.785C127.155 154.786 126.645 154.293 126.488 153.648" fill="#F99746"/>
<path d="M116.436 157.629C116.339 157.23 116.068 156.928 115.776 156.929C115.483 156.929 115.363 157.222 115.462 157.631C115.56 158.034 115.826 158.332 116.122 158.332C116.417 158.331 116.534 158.035 116.436 157.629V157.629ZM114.961 157.632C114.805 156.993 115.085 156.493 115.677 156.492C116.264 156.49 116.781 156.983 116.937 157.628C117.092 158.267 116.816 158.767 116.221 158.768C115.626 158.77 115.116 158.277 114.961 157.632Z" fill="#94B0ED"/>
<path d="M118.143 157L117.778 157.096L117.581 156.699L118.174 156.51L118.507 156.509L119.044 158.725L118.561 158.727L118.143 157" fill="#94B0ED"/>
<path d="M121.353 157.621C121.256 157.221 120.986 156.921 120.693 156.921C120.402 156.921 120.282 157.214 120.381 157.623C120.478 158.025 120.744 158.323 121.04 158.323C121.336 158.322 121.451 158.027 121.353 157.621ZM119.878 157.623C119.724 156.986 120.003 156.484 120.594 156.483C121.183 156.483 121.7 156.976 121.856 157.621C122.01 158.258 121.734 158.76 121.14 158.76C120.545 158.761 120.034 158.268 119.878 157.623Z" fill="#94B0ED"/>
<path d="M124.31 157.616C124.213 157.216 123.942 156.914 123.651 156.916C123.358 156.916 123.237 157.209 123.337 157.617C123.435 158.02 123.701 158.318 123.996 158.318C124.292 158.317 124.408 158.022 124.31 157.616V157.616ZM122.835 157.618C122.68 156.979 122.959 156.479 123.551 156.478C124.139 156.477 124.656 156.971 124.812 157.615C124.966 158.253 124.69 158.754 124.096 158.755C123.501 158.756 122.991 158.263 122.835 157.618Z" fill="#94B0ED"/>
<path d="M128.305 141.3C128.209 140.9 127.938 140.598 127.646 140.598C127.353 140.6 127.233 140.893 127.332 141.301C127.429 141.703 127.696 142.002 127.992 142.001C128.287 142.001 128.404 141.704 128.305 141.3V141.3ZM126.83 141.302C126.675 140.663 126.955 140.163 127.547 140.162C128.134 140.161 128.651 140.654 128.807 141.299C128.962 141.937 128.686 142.437 128.091 142.439C127.497 142.44 126.987 141.946 126.83 141.302Z" fill="#94B0ED"/>
<path d="M131.262 141.295C131.165 140.895 130.895 140.594 130.602 140.594C130.31 140.595 130.19 140.887 130.29 141.296C130.386 141.698 130.653 141.997 130.948 141.996C131.243 141.996 131.36 141.7 131.262 141.295V141.295ZM129.787 141.297C129.632 140.659 129.912 140.158 130.503 140.157C131.091 140.156 131.608 140.649 131.765 141.294C131.919 141.933 131.642 142.433 131.047 142.434C130.454 142.434 129.943 141.941 129.787 141.297Z" fill="#94B0ED"/>
<path d="M123.843 168.02C123.746 167.62 123.476 167.319 123.183 167.32C122.892 167.32 122.771 167.613 122.871 168.021C122.968 168.424 123.234 168.722 123.529 168.722C123.826 168.721 123.941 168.426 123.843 168.02V168.02ZM122.368 168.022C122.214 167.384 122.493 166.883 123.084 166.882C123.673 166.881 124.189 167.374 124.346 168.019C124.5 168.657 124.223 169.158 123.63 169.159C123.035 169.16 122.524 168.667 122.368 168.022Z" fill="#F99746"/>
<path d="M125.552 167.391L125.187 167.485L124.989 167.089L125.582 166.901L125.916 166.899L126.453 169.116L125.969 169.117L125.552 167.391" fill="#F99746"/>
<path d="M116.329 161.838L115.965 161.933L115.766 161.537L116.359 161.347H116.694L117.23 163.563L116.747 163.564L116.329 161.838" fill="#94B0ED"/>
<path d="M119.538 162.459C119.442 162.059 119.172 161.757 118.879 161.758C118.587 161.758 118.467 162.052 118.566 162.46C118.663 162.863 118.929 163.161 119.226 163.161C119.521 163.16 119.637 162.864 119.538 162.459V162.459ZM118.064 162.461C117.909 161.822 118.189 161.322 118.78 161.321C119.368 161.32 119.885 161.814 120.041 162.457C120.196 163.096 119.92 163.596 119.325 163.598C118.731 163.599 118.219 163.106 118.064 162.461Z" fill="#94B0ED"/>
<path d="M122.496 162.454C122.399 162.054 122.129 161.752 121.836 161.754C121.543 161.754 121.424 162.047 121.522 162.455C121.62 162.858 121.887 163.156 122.182 163.156C122.477 163.155 122.594 162.86 122.496 162.454V162.454ZM121.021 162.456C120.866 161.817 121.146 161.317 121.737 161.316C122.325 161.315 122.842 161.808 122.999 162.453C123.153 163.091 122.876 163.591 122.281 163.593C121.687 163.594 121.177 163.101 121.021 162.456Z" fill="#94B0ED"/>
<path d="M124.203 161.825L123.839 161.919L123.641 161.523L124.234 161.334L124.569 161.333L125.105 163.55L124.621 163.551L124.203 161.825" fill="#94B0ED"/>
<path d="M117.677 167.404L117.312 167.499L117.115 167.103L117.707 166.913H118.041L118.578 169.129L118.094 169.131L117.677 167.404" fill="#94B0ED"/>
<path d="M120.887 168.025C120.79 167.625 120.519 167.324 120.228 167.325C119.935 167.325 119.814 167.618 119.914 168.026C120.012 168.429 120.278 168.727 120.573 168.727C120.869 168.726 120.985 168.431 120.887 168.025V168.025ZM119.411 168.027C119.257 167.389 119.536 166.888 120.128 166.887C120.716 166.886 121.233 167.379 121.389 168.024C121.543 168.662 121.267 169.163 120.673 169.164C120.078 169.165 119.568 168.672 119.411 168.027Z" fill="#94B0ED"/>
<path d="M128.762 168.011C128.665 167.612 128.394 167.31 128.102 167.311C127.809 167.311 127.689 167.604 127.788 168.013C127.886 168.416 128.153 168.714 128.448 168.714C128.743 168.713 128.86 168.417 128.762 168.011V168.011ZM127.286 168.014C127.131 167.375 127.411 166.875 128.003 166.874C128.59 166.874 129.108 167.367 129.263 168.01C129.418 168.649 129.142 169.149 128.547 169.15C127.953 169.152 127.443 168.659 127.286 168.014Z" fill="#94B0ED"/>
<path d="M131.718 168.006C131.621 167.607 131.351 167.305 131.058 167.306C130.766 167.306 130.646 167.599 130.746 168.008C130.842 168.411 131.108 168.709 131.404 168.709C131.701 168.708 131.816 168.412 131.718 168.006V168.006ZM130.243 168.009C130.088 167.37 130.368 166.87 130.959 166.869C131.547 166.867 132.064 167.362 132.22 168.005C132.375 168.644 132.098 169.144 131.504 169.145C130.91 169.147 130.399 168.654 130.243 168.009Z" fill="#94B0ED"/>
<path d="M124.983 171.949C124.886 171.551 124.617 171.249 124.324 171.249C124.032 171.249 123.912 171.542 124.011 171.952C124.108 172.354 124.374 172.652 124.669 172.652C124.966 172.651 125.081 172.355 124.983 171.949V171.949ZM123.508 171.952C123.354 171.314 123.633 170.813 124.224 170.811C124.813 170.811 125.329 171.304 125.486 171.949C125.64 172.587 125.363 173.088 124.769 173.088C124.175 173.089 123.664 172.597 123.508 171.952Z" fill="#F99746"/>
<path d="M126.691 171.32L126.327 171.416L126.129 171.02L126.722 170.83H127.057L127.592 173.047H127.109L126.691 171.32" fill="#F99746"/>
<path d="M122.026 171.954C121.931 171.556 121.66 171.254 121.368 171.254C121.075 171.254 120.955 171.547 121.054 171.957C121.151 172.359 121.418 172.657 121.714 172.657C122.009 172.656 122.125 172.36 122.026 171.954V171.954ZM120.551 171.957C120.397 171.319 120.676 170.818 121.267 170.816C121.856 170.816 122.373 171.309 122.529 171.954C122.683 172.592 122.407 173.093 121.813 173.093C121.218 173.094 120.708 172.602 120.551 171.957Z" fill="#94B0ED"/>
<path d="M129.902 171.941C129.805 171.542 129.534 171.241 129.243 171.241C128.95 171.242 128.829 171.534 128.929 171.943C129.027 172.345 129.293 172.644 129.588 172.643C129.884 172.643 130 172.346 129.902 171.941ZM128.426 171.944C128.272 171.306 128.551 170.805 129.143 170.804C129.731 170.803 130.248 171.296 130.404 171.941C130.558 172.578 130.282 173.08 129.688 173.081C129.093 173.081 128.583 172.588 128.426 171.944Z" fill="#94B0ED"/>
<path d="M132.858 171.936C132.761 171.537 132.492 171.236 132.199 171.236C131.907 171.237 131.787 171.529 131.885 171.938C131.983 172.34 132.249 172.638 132.544 172.638C132.841 172.638 132.956 172.342 132.858 171.936ZM131.383 171.938C131.229 171.301 131.508 170.799 132.099 170.799C132.688 170.798 133.204 171.291 133.361 171.936C133.515 172.573 133.238 173.075 132.644 173.075C132.05 173.076 131.539 172.583 131.383 171.938Z" fill="#94B0ED"/>
<path d="M134.675 168.001C134.578 167.602 134.307 167.3 134.015 167.301C133.722 167.301 133.602 167.594 133.702 168.003C133.8 168.406 134.066 168.704 134.361 168.704C134.657 168.703 134.773 168.407 134.675 168.001V168.001ZM133.2 168.004C133.044 167.365 133.324 166.865 133.916 166.864C134.503 166.862 135.021 167.357 135.177 168C135.331 168.639 135.055 169.139 134.461 169.14C133.866 169.142 133.356 168.649 133.2 168.004Z" fill="#94B0ED"/>
<path d="M137.631 167.997C137.534 167.597 137.264 167.295 136.971 167.297C136.68 167.297 136.559 167.59 136.659 167.998C136.756 168.401 137.022 168.699 137.318 168.699C137.614 168.698 137.729 168.402 137.631 167.997V167.997ZM136.156 167.999C136.002 167.36 136.281 166.86 136.872 166.859C137.461 166.858 137.978 167.35 138.134 167.995C138.288 168.634 138.012 169.134 137.418 169.136C136.823 169.137 136.312 168.644 136.156 167.999Z" fill="#94B0ED"/>
<path d="M214.746 129.776L214.381 129.871L214.183 129.475L214.777 129.285L215.111 129.284L215.647 131.501L215.164 131.502L214.746 129.776" fill="#94B0ED"/>
<path d="M217.956 130.396C217.859 129.997 217.589 129.696 217.297 129.696C217.004 129.696 216.884 129.989 216.984 130.398C217.081 130.8 217.347 131.099 217.642 131.098C217.939 131.098 218.053 130.802 217.956 130.396ZM216.481 130.399C216.327 129.76 216.606 129.26 217.197 129.259C217.786 129.258 218.303 129.751 218.459 130.396C218.613 131.034 218.335 131.534 217.742 131.536C217.148 131.537 216.637 131.044 216.481 130.399" fill="#94B0ED"/>
<path d="M220.913 130.391C220.816 129.992 220.546 129.69 220.253 129.691C219.96 129.692 219.841 129.984 219.939 130.393C220.037 130.795 220.303 131.094 220.599 131.093C220.895 131.093 221.011 130.797 220.913 130.391ZM219.436 130.394C219.283 129.755 219.562 129.255 220.154 129.254C220.742 129.253 221.258 129.746 221.414 130.391C221.569 131.029 221.294 131.53 220.699 131.531C220.104 131.532 219.594 131.039 219.436 130.394Z" fill="#94B0ED"/>
<path d="M223.87 130.386C223.772 129.987 223.503 129.685 223.209 129.686C222.919 129.686 222.798 129.979 222.898 130.388C222.994 130.79 223.26 131.089 223.557 131.088C223.852 131.088 223.968 130.791 223.87 130.386V130.386ZM222.395 130.389C222.24 129.75 222.52 129.25 223.11 129.249C223.698 129.248 224.216 129.741 224.371 130.385C224.526 131.024 224.251 131.524 223.656 131.526C223.062 131.527 222.55 131.033 222.395 130.389Z" fill="#94B0ED"/>
<path d="M225.578 129.757L225.212 129.852L225.015 129.457L225.608 129.267L225.942 129.266L226.479 131.483L225.996 131.484L225.578 129.757Z" fill="#94B0ED"/>
<path d="M213.037 135.713C212.94 135.315 212.67 135.013 212.378 135.013C212.084 135.014 211.965 135.306 212.064 135.716C212.162 136.118 212.428 136.417 212.723 136.416C213.018 136.416 213.135 136.119 213.037 135.713ZM211.562 135.717C211.407 135.078 211.686 134.578 212.279 134.577C212.866 134.576 213.382 135.068 213.539 135.713C213.693 136.351 213.417 136.852 212.822 136.853C212.228 136.853 211.717 136.361 211.562 135.717Z" fill="#94B0ED"/>
<path d="M214.746 135.084L214.381 135.179L214.183 134.783L214.777 134.593H215.111L215.647 136.81L215.164 136.811L214.746 135.084Z" fill="#94B0ED"/>
<path d="M217.956 135.705C217.859 135.306 217.589 135.004 217.297 135.004C217.004 135.005 216.884 135.298 216.984 135.707C217.081 136.109 217.347 136.408 217.642 136.407C217.939 136.407 218.053 136.11 217.956 135.705ZM216.481 135.708C216.327 135.069 216.606 134.569 217.197 134.567C217.786 134.566 218.303 135.059 218.459 135.704C218.613 136.343 218.335 136.843 217.742 136.844C217.148 136.845 216.637 136.351 216.481 135.708" fill="#F99746"/>
<path d="M220.913 135.7C220.816 135.301 220.546 134.999 220.253 134.999C219.96 135 219.841 135.292 219.939 135.702C220.037 136.104 220.303 136.403 220.599 136.401C220.895 136.401 221.011 136.105 220.913 135.7V135.7ZM219.436 135.703C219.283 135.064 219.562 134.564 220.154 134.562C220.742 134.561 221.258 135.054 221.414 135.699C221.569 136.338 221.294 136.838 220.699 136.839C220.104 136.841 219.594 136.346 219.436 135.703Z" fill="#F99746"/>
<path d="M223.87 135.695C223.772 135.296 223.503 134.994 223.209 134.994C222.919 134.995 222.798 135.287 222.898 135.697C222.994 136.099 223.26 136.398 223.557 136.397C223.852 136.397 223.968 136.1 223.87 135.695V135.695ZM222.395 135.698C222.24 135.059 222.52 134.559 223.11 134.557C223.698 134.556 224.216 135.049 224.371 135.694C224.526 136.333 224.251 136.833 223.656 136.834C223.062 136.836 222.55 136.341 222.395 135.698Z" fill="#F99746"/>
<path d="M225.578 135.067L225.212 135.161L225.015 134.765L225.608 134.575H225.942L226.479 136.792L225.996 136.793L225.578 135.067" fill="#F99746"/>
<path d="M224.977 165.739L224.612 165.833L224.414 165.437L225.007 165.247H225.341L225.877 167.464L225.394 167.465L224.977 165.739" fill="#94B0ED"/>
<path d="M228.186 166.36C228.091 165.96 227.82 165.658 227.527 165.66C227.234 165.66 227.115 165.953 227.213 166.361C227.311 166.764 227.578 167.062 227.873 167.062C228.169 167.061 228.285 166.766 228.186 166.36ZM226.71 166.362C226.556 165.723 226.836 165.223 227.427 165.222C228.016 165.221 228.533 165.714 228.688 166.359C228.843 166.997 228.567 167.498 227.973 167.499C227.378 167.5 226.868 167.007 226.71 166.362" fill="#94B0ED"/>
<path d="M231.141 166.355C231.045 165.956 230.776 165.654 230.483 165.655C230.19 165.655 230.07 165.948 230.168 166.357C230.266 166.759 230.532 167.058 230.828 167.057C231.123 167.057 231.239 166.761 231.141 166.355V166.355ZM229.667 166.358C229.512 165.719 229.791 165.219 230.382 165.218C230.971 165.216 231.487 165.709 231.644 166.354C231.799 166.993 231.521 167.493 230.927 167.494C230.332 167.496 229.822 167.003 229.667 166.358Z" fill="#94B0ED"/>
<path d="M222.071 169.348L221.705 169.442L221.507 169.046L222.101 168.857L222.435 168.856L222.972 171.073L222.489 171.074L222.071 169.348" fill="#94B0ED"/>
<path d="M225.28 169.968C225.183 169.569 224.914 169.267 224.62 169.268C224.329 169.268 224.208 169.561 224.308 169.97C224.405 170.373 224.672 170.671 224.967 170.671C225.264 170.67 225.379 170.374 225.28 169.968V169.968ZM223.806 169.971C223.651 169.332 223.93 168.832 224.522 168.831C225.109 168.829 225.625 169.323 225.783 169.967C225.937 170.606 225.66 171.106 225.065 171.107C224.472 171.109 223.962 170.616 223.806 169.971" fill="#94B0ED"/>
<path d="M228.237 169.963C228.141 169.564 227.87 169.262 227.577 169.263C227.284 169.263 227.165 169.557 227.264 169.965C227.362 170.368 227.627 170.666 227.923 170.666C228.219 170.665 228.335 170.369 228.237 169.963V169.963ZM226.762 169.966C226.607 169.327 226.886 168.827 227.479 168.826C228.066 168.825 228.584 169.319 228.738 169.962C228.893 170.601 228.617 171.101 228.023 171.103C227.428 171.104 226.918 170.611 226.762 169.966Z" fill="#94B0ED"/>
<path d="M234.099 166.35C234.004 165.95 233.732 165.649 233.441 165.649C233.147 165.65 233.028 165.943 233.127 166.351C233.226 166.753 233.491 167.052 233.787 167.051C234.082 167.051 234.198 166.756 234.099 166.35ZM232.624 166.352C232.47 165.713 232.749 165.213 233.342 165.212C233.928 165.211 234.446 165.704 234.601 166.349C234.756 166.987 234.48 167.488 233.886 167.489C233.292 167.49 232.78 166.997 232.624 166.352" fill="#94B0ED"/>
<path d="M235.808 165.721L235.443 165.815L235.246 165.419L235.838 165.229H236.172L236.709 167.446L236.225 167.447L235.808 165.721" fill="#94B0ED"/>
<path d="M145.736 134.234L164.535 142.468V135.142L154.74 131.114L164.535 127.087V119.829L145.736 128.063V134.234Z" fill="#9F144B"/>
<path d="M181.818 114.754L165.576 148.708H172.44L188.685 114.754H181.818Z" fill="#9F144B"/>
<path d="M189.942 119.828V127.154L199.737 131.182L189.942 135.21V142.468L208.741 134.234V128.062L189.942 119.828" fill="#9F144B"/>
<path d="M165.575 148.709V146.769H172.44V148.709H165.575Z" fill="#9F144B"/>
<path d="M188.685 112.814V114.754H185.477V112.815L188.685 112.814Z" fill="#2C3A64"/>
<path d="M145.736 132.296L164.535 140.53V133.203L154.74 129.176L164.535 125.147V117.889L145.736 126.123V132.296Z" fill="#C2185B"/>
<path d="M181.818 112.814L165.576 146.769H172.44L188.685 112.814H181.818Z" fill="#C2185B"/>
<path d="M189.942 117.889V125.216L199.737 129.244L189.942 133.272V140.53L208.741 132.296V126.123L189.942 117.889" fill="#C2185B"/>
<path d="M251.165 186.324H250.02L240.65 150.569L228.604 104.605H94.08L114.458 186.324L113.003 186.339L92.3796 103.495L229.55 103.377L229.67 103.834L241.713 150.045L251.165 186.324" fill="#7882BA"/>
<path d="M251.373 187.121L250.269 187.27L240.651 150.569L241.713 150.045L251.373 187.121" fill="#7882BA"/>
<path d="M113.303 123.856C113.053 124.144 113.02 124.465 113.145 124.81L113.147 124.815C113.376 125.45 114.136 126.159 115.019 126.867C115.131 126.959 115.231 127.041 115.32 127.119C115.342 127.138 115.365 127.158 115.387 127.179C115.404 127.195 115.421 127.21 115.438 127.225C116.261 127.984 115.951 128.157 117.43 129.697C119.115 131.45 120.275 131.482 120.605 131.321C120.885 131.185 120.317 130.256 119.689 129.21C119.658 129.16 119.628 129.108 119.597 129.058C119.514 128.92 119.43 128.777 119.347 128.638C118.61 127.38 118.799 126.79 118.974 124.918C119.115 123.396 121.341 116.418 121.341 116.418L118.111 115.861C118.111 115.861 117.139 121.417 116.067 122.274C115.494 122.731 114.852 122.735 114.302 123.074C114.263 123.097 114.225 123.122 114.187 123.146C113.874 123.353 113.555 123.568 113.303 123.856" fill="#FFB27D"/>
<path d="M113.303 123.856C113.053 124.144 113.02 124.465 113.145 124.81L113.147 124.815C113.428 125.449 114.168 126.155 115.022 126.861C115.133 126.953 115.231 127.039 115.32 127.119C115.342 127.138 115.365 127.158 115.387 127.179C115.404 127.195 115.421 127.21 115.438 127.225C116.261 127.984 115.951 128.157 117.43 129.697C119.115 131.45 120.275 131.482 120.605 131.321C120.885 131.185 120.317 130.256 119.689 129.21C119.361 129.09 117.837 128.471 116.684 126.997C115.669 125.701 114.992 124.038 114.302 123.074C114.263 123.097 114.225 123.122 114.187 123.146C113.874 123.353 113.555 123.568 113.303 123.856" fill="#C2185B"/>
<path d="M139.346 121.839C139.546 122.836 140.967 122.67 142.555 122.282C144.142 121.894 143.765 122.355 146.024 122.105C148.284 121.855 148.969 121.013 149.038 120.677C149.099 120.378 147.983 120.274 146.786 120.135C146.635 120.118 146.484 120.099 146.332 120.081C144.98 119.912 143.99 119.039 142.762 118.322C141.598 117.644 139.862 114.878 139.862 114.878L136.763 115.124C136.763 115.124 138.39 117.593 139.019 118.667C139.389 119.299 139.369 120.134 139.323 120.779C139.298 121.129 139.276 121.489 139.346 121.839" fill="#FFB27D"/>
<path d="M142.555 122.282C144.142 121.894 143.765 122.355 146.024 122.105C148.284 121.855 148.969 121.013 149.038 120.677C149.099 120.378 147.983 120.274 146.786 120.135L146.775 120.158C146.775 120.158 145.419 121.12 143.538 121.164C142.005 121.202 140.381 120.762 139.323 120.779C139.298 121.129 139.276 121.489 139.346 121.839C139.546 122.836 140.967 122.67 142.555 122.282Z" fill="#C2185B"/>
<path d="M127.471 102.024L124.574 109.819L120.792 119.998C120.792 119.998 119.765 120.097 118.783 119.814C117.879 119.553 116.84 118.869 116.84 118.869C116.84 118.869 117.89 107.94 119.849 101.666C120.351 100.056 120.914 98.7532 121.535 98.02C124.571 94.4314 127.471 102.024 127.471 102.024" fill="#2C3A64"/>
<path d="M124.526 89.645C122.628 89.032 117.215 89.8179 111.778 90.8833L110.639 89.005L98.8941 88.0879C98.8941 88.0879 95.0185 96.6824 97.1402 102.159C97.4521 102.963 98.0718 103.479 99.128 103.497H99.2995C99.2995 103.497 106.29 103.493 108.559 103.493C114.4 103.493 120.92 99.4777 121.764 99.3085C123.145 99.0327 123.697 101.794 125.078 104.693C126.458 107.593 138.055 117.533 138.055 117.533C138.055 117.533 139.838 117.551 140.575 117.275C141.367 116.978 141.656 116.592 141.656 116.592C141.656 116.592 128.806 91.0255 124.526 89.645" fill="#2E3D56"/>
<path d="M106.747 53.2513C105.102 52.8274 102.848 53.2489 102.476 53.2857C98.0064 53.7257 96.505 58.7114 97.1813 62.5787C97.8054 66.1475 95.995 67.1355 93.8969 69.9546C89.6901 75.6076 92.4397 80.3733 95.7593 81.6022C97.7509 82.3396 100.516 80.4802 100.516 80.4802C100.566 80.4999 109.205 74.8199 112.746 71.6186C118.644 69.3107 110.941 54.3303 106.747 53.2513" fill="#2B478B"/>
<path d="M107.407 69.6006C107.525 70.0138 105.57 70.7739 104.078 70.4944C102.674 70.2333 101.101 68.5891 101.425 68.4347C101.962 68.1797 102.324 67.5446 102.03 64.1129L102.297 64.1423L106.789 64.6561C106.789 64.6561 106.802 66.055 106.907 67.3656C106.994 68.4653 107.216 68.9263 107.407 69.6006" fill="#FFB27D"/>
<path d="M106.789 64.6562C106.789 64.6562 106.803 66.0551 106.907 67.3657C104.428 67.4981 102.936 65.3501 102.297 64.1425L106.789 64.6562Z" fill="#ED975D"/>
<path d="M107.716 65.8281C107.716 65.8281 101.873 66.4043 101.57 62.7605C101.267 59.1156 100.309 56.7359 104.027 56.2136C107.745 55.6913 108.586 57.0215 108.984 58.2132C109.381 59.4049 109.229 65.5841 107.716 65.8281Z" fill="#FFB27D"/>
<path d="M107.091 55.6387C107.091 55.6387 106.354 60.0904 103.026 61.1472C100.598 61.9184 99.4987 61.4096 99.4987 61.4096C99.4987 61.4096 100.668 59.8599 101.083 57.7057C101.205 57.0706 101.657 56.5471 102.271 56.3461C103.996 55.7784 106.087 54.2263 107.091 55.6387" fill="#2B478B"/>
<path d="M105.988 56.5876C105.988 56.5876 107.091 56.8328 108.066 58.2538C108.6 59.0311 109.216 60.9878 109.111 61.8558C109.111 61.8558 110.135 57.7339 108.643 56.2014C107.061 54.5757 105.988 56.5876 105.988 56.5876" fill="#2B478B"/>
<path d="M96.885 81.5729C96.9892 82.0155 97.0785 82.4225 97.151 82.7989C97.27 83.4046 97.3518 83.9268 97.4094 84.3878C97.5879 85.826 97.534 86.6768 97.6548 87.6086C97.7218 88.1297 97.8445 88.6765 98.0918 89.3618C98.3336 90.03 104.684 90.6246 108.297 90.3855C109.443 90.3108 110.317 90.1489 110.628 89.8816C111.916 88.7623 111.789 91.2241 111.965 79.4445C112.051 73.6981 107.089 68.5807 107.089 68.5807C107.089 68.5807 106.693 71.0352 101.773 68.1148C101.599 68.0118 99.6611 70.8807 97.7962 74.4141C95.7415 78.3166 96.3049 79.1429 96.885 81.5729Z" fill="#C2185B"/>
<path d="M124.574 109.819L120.792 119.998C120.792 119.998 119.765 120.097 118.783 119.814C117.879 119.553 116.84 118.869 116.84 118.869C116.84 118.869 117.89 107.94 119.849 101.666L124.574 109.819Z" fill="#2E3D56"/>
<path d="M107.091 68.5806C107.091 68.5806 112.153 69.4388 112.746 71.6175C113.341 73.7974 117.448 85.9878 117.448 85.9878C117.448 85.9878 114.267 87.074 113.077 85.8848C111.888 84.6955 108.941 74.8542 108.941 74.8542L107.091 68.5806Z" fill="#C2185B"/>
<path d="M127.727 83.1862L128.926 82.7105C128.926 82.7105 129.647 82.5512 130.037 82.6738C130.427 82.7964 131.401 82.7829 131.406 82.9435C131.411 83.1029 130.296 83.6006 130.296 83.6006L130.26 83.5871C130.684 84.5471 132.804 85.0952 132.907 85.447C133.031 85.8737 132.044 86.0944 131.507 86.228C130.97 86.3616 129.653 86.3482 129.003 85.664C128.53 85.1626 127.727 84.4748 127.727 84.4748V83.1862" fill="#FFB27D"/>
<path d="M106.367 63.679C106.367 63.679 106.613 64.2786 107.26 64.2786C107.906 64.2786 108.081 64.1817 108.204 64.0444C108.327 63.9083 108.448 63.6435 108.448 63.6435C108.448 63.6435 107.375 63.4326 106.367 63.679" fill="white"/>
<path d="M116.037 81.7751L128.294 82.7106C128.294 82.7106 128.55 83.8998 127.759 85.2472C127.759 85.2472 116.703 87.4087 113.817 86.3053C110.932 85.2006 111.257 79.9949 111.257 79.9949L116.037 81.7751" fill="#F99746"/>
<path d="M97.4095 84.3878C97.588 85.8259 97.5341 86.6768 97.6549 87.6085C102.252 87.6232 108.396 84.0592 108.396 84.0592L97.4095 84.3878" fill="#9F144B"/>
<path d="M108.396 81.0442C108.396 81.0442 101.236 80.8308 100.029 76.7604C98.7033 72.2891 97.2181 78.5995 97.2181 78.5995L98.0084 82.627H105.865L108.396 81.0442" fill="#9F144B"/>
<path d="M120.88 70.0003L120.494 69.0416C120.078 68.0142 119.081 67.3423 117.973 67.3423H110.835V71.8712V91.2094H140.364V71.8712H123.654C122.434 71.8712 121.337 71.1307 120.88 70.0003Z" fill="#F4B85F"/>
<path d="M115.289 81.8561V80.1348L121.324 77.4915V79.2496L117.108 80.9832L121.324 82.7156V84.4995L115.289 81.8561Z" fill="white"/>
<path d="M127.593 75.4354H129.202L123.679 86.9796H122.071L127.593 75.4354Z" fill="white"/>
<path d="M135.91 80.1348V81.8561L129.875 84.4995V82.7413L134.089 81.0077L129.875 79.2754V77.4915L135.91 80.1348" fill="white"/>
<path d="M108.396 81.9884L108.914 81.1743C108.914 81.1743 109.324 81.0406 109.899 80.6373C110.584 80.1567 110.493 79.437 110.835 79.5142L110.839 81.0946L110.802 81.1007C112.269 81.4918 113.986 81.0664 114.02 81.4317C114.114 82.4371 113.337 82.8895 112.685 83.2046C112.187 83.4449 111.621 83.8066 110.72 83.5258C110.061 83.321 109.025 83.1126 109.025 83.1126L108.396 81.9884Z" fill="#FFB27D"/>
<path d="M101.773 68.1146C101.773 68.1146 97.1248 68.4187 95.9627 70.232C94.8005 72.0453 93.3596 81.2491 93.9639 84.411C94.5681 87.5717 109.453 83.8065 109.453 83.8065L108.979 81.0639C108.979 81.0639 100.388 81.113 99.8986 79.9948C99.2477 78.5064 101.773 68.1146 101.773 68.1146" fill="#C2185B"/>
<path d="M124.211 71.8613C124.172 71.9814 124.91 73.1988 125.965 72.988C126.624 72.8556 127.479 71.4383 126.728 71.1256C125.474 70.6046 124.317 71.5388 124.211 71.8613" fill="#FFB27D"/>
</svg>
