<svg width="72" height="36" viewBox="0 0 112 56" fill="none" xmlns="http://www.w3.org/2000/svg">
<path d="M82.2574 1.80473C82.1099 0.436998 80.2684 0.208455 79.4581 0.132727C75.8486 -0.323192 67.3042 0.284876 58.8329 3.70473C51.4667 6.59286 41.8907 12.5209 37.7657 24.3007V24.3765C35.4082 32.6604 37.3973 38.6645 44.1741 43.3765C44.2476 43.4523 44.3216 43.4523 44.4685 43.5287C43.0688 49.0766 42.4795 53.3324 42.406 53.789C42.3325 54.4728 42.7744 55.0809 43.4372 55.2331H43.5847C44.1741 55.2331 44.6894 54.7772 44.7634 54.1691C44.7634 54.017 45.4262 49.6853 46.8259 43.9853C47.9306 44.1374 49.6987 44.4412 51.8346 44.4412C57.2118 44.4412 64.6519 42.9213 67.9665 35.3213C69.7345 31.2176 71.2078 26.2772 72.6073 21.5653C74.9648 13.5094 77.4691 5.22531 80.8573 3.85731C82.184 3.1729 82.3309 2.41263 82.2575 1.80463L82.2574 1.80473ZM70.2504 20.6527C68.8507 25.2887 67.4511 30.1527 65.6835 34.1049C61.9269 42.921 51.0249 41.9329 47.4891 41.4011C50.0675 32.1291 54.4868 20.5771 61.7058 16.5491C62.2952 16.2454 62.5161 15.4852 62.2217 14.8771C61.9273 14.2691 61.117 14.0411 60.6011 14.3449C52.5722 18.8287 47.7839 31.2169 45.1322 40.8689C39.6811 36.9167 38.1345 32.0527 40.1235 25.0609C43.8801 14.4211 52.6458 8.94888 59.3492 6.21288C67.0837 3.02088 74.5234 2.41288 78.2065 2.56501C74.7444 5.52901 72.6084 12.5967 70.2511 20.653L70.2504 20.6527Z" fill="white"/>
<path d="M25.8256 20.958C25.8256 19.8804 25.1118 19 24.2343 19C23.9362 19 23.6574 19.1005 23.3949 19.2955L0.798129 35.3171C0.300625 35.6732 0 36.3041 0 37.0095C0 37.708 0.306257 38.3527 0.798129 38.6989L23.3725 54.7128C24.4556 55.5218 25.825 54.511 25.825 53.0603C25.825 52.4156 25.5763 51.8315 25.1444 51.4584L24.9231 51.2673L24.915 51.2911L4.78381 37.0094L25.1438 22.5598C25.5707 22.1975 25.8251 21.5965 25.8251 20.9579L25.8256 20.958Z" fill="white"/>
<path d="M110.826 35.314L88.2531 19.2961C87.1431 18.4659 85.8006 19.4981 85.8006 20.9458C85.8006 21.5841 86.055 22.1854 86.4812 22.5487L86.7106 22.723L106.842 37.0074L86.7106 51.298L86.6968 51.278L86.4806 51.4662C86.0487 51.8395 85.8 52.4239 85.8 53.0691C85.8 54.5206 87.2331 55.4913 88.2305 54.7387L110.827 38.701C111.317 38.3516 111.624 37.7033 111.624 37.0075C111.624 36.3117 111.318 35.6635 110.826 35.314Z" fill="white"/>
</svg>
