<svg aria-hidden="true" style="position: absolute; width: 0; height: 0; overflow: hidden;" version="1.1" xmlns="http://www.w3.org/2000/svg" xmlns:xlink="http://www.w3.org/1999/xlink">
<defs>
<symbol id="icon-accessibility_new" viewBox="0 0 32 32">
<path d="M16 8q-1.063 0-1.875-0.813t-0.813-1.875 0.813-1.844 1.875-0.781 1.875 0.781 0.813 1.844-0.813 1.875-1.875 0.813zM27.313 8l0.688 2.688q-3.125 0.875-8 1.313v17.313h-2.688v-8h-2.625v8h-2.688v-17.313q-4.875-0.438-8-1.313l0.688-2.688q4.875 1.313 11.313 1.313t11.313-1.313z"></path>
</symbol>
<symbol id="icon-chevron-down" viewBox="0 0 32 32">
<path d="M7.226 12.077c0.698-0.714 1.669-0.77 2.522 0l6.253 5.995 6.253-5.995c0.853-0.77 1.826-0.714 2.518 0 0.698 0.712 0.653 1.915 0 2.584-0.65 0.669-7.512 7.203-7.512 7.203-0.347 0.357-0.803 0.536-1.259 0.536s-0.912-0.179-1.262-0.536c0 0-6.859-6.534-7.512-7.203-0.654-0.669-0.698-1.872 0-2.584z"></path>
</symbol>
<symbol id="icon-chevron-up" viewBox="0 0 32 32">
<path d="M24.774 19.923c-0.698 0.714-1.669 0.77-2.522 0l-6.253-5.995-6.253 5.995c-0.853 0.77-1.826 0.714-2.518 0-0.698-0.712-0.653-1.915 0-2.584 0.65-0.669 7.512-7.203 7.512-7.203 0.347-0.357 0.803-0.536 1.259-0.536s0.912 0.179 1.262 0.536c0 0 6.859 6.534 7.512 7.203 0.654 0.669 0.698 1.872 0 2.584z"></path>
</symbol>
<symbol id="icon-cross" viewBox="0 0 32 32">
<path d="M22.957 23.758c-0.75 0.75-1.966 0.75-2.715 0l-4.242-4.848-4.242 4.846c-0.75 0.75-1.966 0.75-2.715 0-0.75-0.75-0.75-1.966 0-2.715l4.413-5.040-4.414-5.043c-0.75-0.75-0.75-1.965 0-2.715s1.965-0.75 2.715 0l4.243 4.85 4.242-4.85c0.75-0.75 1.965-0.75 2.715 0s0.75 1.966 0 2.715l-4.413 5.043 4.413 5.040c0.75 0.75 0.75 1.966 0 2.717z"></path>
</symbol>
<symbol id="icon-location-pin" viewBox="0 0 32 32">
<path d="M16 3.214c-4.419 0-8 3.566-8 7.984 0 7.638 8 17.6 8 17.6s8-9.963 8-17.6c0-4.416-3.581-7.984-8-7.984zM16 15.616c-2.387 0-4.32-1.934-4.32-4.32s1.933-4.32 4.32-4.32c2.384 0 4.318 1.934 4.318 4.32s-1.934 4.32-4.318 4.32z"></path>
</symbol>
<symbol id="icon-menu" viewBox="0 0 32 32">
<path d="M26.24 14.4h-20.48c-0.883 0-0.96 0.715-0.96 1.6s0.077 1.6 0.96 1.6h20.48c0.883 0 0.96-0.715 0.96-1.6s-0.077-1.6-0.96-1.6zM26.24 20.8h-20.48c-0.883 0-0.96 0.715-0.96 1.6s0.077 1.6 0.96 1.6h20.48c0.883 0 0.96-0.715 0.96-1.6s-0.077-1.6-0.96-1.6zM5.76 11.2h20.48c0.883 0 0.96-0.715 0.96-1.6s-0.077-1.6-0.96-1.6h-20.48c-0.883 0-0.96 0.715-0.96 1.6s0.077 1.6 0.96 1.6z"></path>
</symbol>
<symbol id="icon-linkedin-with-circle" viewBox="0 0 32 32">
<path d="M16 0.64c-8.483 0-15.36 6.877-15.36 15.36s6.877 15.36 15.36 15.36 15.36-6.877 15.36-15.36-6.877-15.36-15.36-15.36zM12.24 22.366h-3.11v-10.010h3.11v10.010zM10.666 11.128c-0.982 0-1.618-0.696-1.618-1.557 0-0.878 0.654-1.554 1.658-1.554s1.618 0.675 1.637 1.554c0 0.861-0.634 1.557-1.677 1.557zM23.6 22.366h-3.11v-5.547c0-1.291-0.451-2.168-1.576-2.168-0.859 0-1.37 0.594-1.595 1.165-0.083 0.203-0.104 0.491-0.104 0.778v5.771h-3.112v-6.816c0-1.25-0.040-2.294-0.082-3.194h2.702l0.142 1.39h0.062c0.41-0.653 1.413-1.616 3.091-1.616 2.046 0 3.581 1.371 3.581 4.318v5.918z"></path>
</symbol>
<symbol id="icon-earth" viewBox="0 0 32 32">
<path d="M16 0c-8.837 0-16 7.163-16 16s7.163 16 16 16 16-7.163 16-16-7.163-16-16-16zM16 30c-1.967 0-3.84-0.407-5.538-1.139l7.286-8.197c0.163-0.183 0.253-0.419 0.253-0.664v-3c0-0.552-0.448-1-1-1-3.531 0-7.256-3.671-7.293-3.707-0.188-0.188-0.442-0.293-0.707-0.293h-4c-0.552 0-1 0.448-1 1v6c0 0.379 0.214 0.725 0.553 0.894l3.447 1.724v5.871c-3.627-2.53-6-6.732-6-11.489 0-2.147 0.484-4.181 1.348-6h3.652c0.265 0 0.52-0.105 0.707-0.293l4-4c0.188-0.188 0.293-0.442 0.293-0.707v-2.419c1.268-0.377 2.61-0.581 4-0.581 2.2 0 4.281 0.508 6.134 1.412-0.13 0.109-0.256 0.224-0.376 0.345-1.133 1.133-1.757 2.64-1.757 4.243s0.624 3.109 1.757 4.243c1.139 1.139 2.663 1.758 4.239 1.758 0.099 0 0.198-0.002 0.297-0.007 0.432 1.619 1.211 5.833-0.263 11.635-0.014 0.055-0.022 0.109-0.026 0.163-2.541 2.596-6.084 4.208-10.004 4.208z"></path>
</symbol>
<symbol id="icon-github" viewBox="0 0 32 32">
<path d="M16 0.395c-8.836 0-16 7.163-16 16 0 7.069 4.585 13.067 10.942 15.182 0.8 0.148 1.094-0.347 1.094-0.77 0-0.381-0.015-1.642-0.022-2.979-4.452 0.968-5.391-1.888-5.391-1.888-0.728-1.849-1.776-2.341-1.776-2.341-1.452-0.993 0.11-0.973 0.11-0.973 1.606 0.113 2.452 1.649 2.452 1.649 1.427 2.446 3.743 1.739 4.656 1.33 0.143-1.034 0.558-1.74 1.016-2.14-3.554-0.404-7.29-1.777-7.29-7.907 0-1.747 0.625-3.174 1.649-4.295-0.166-0.403-0.714-2.030 0.155-4.234 0 0 1.344-0.43 4.401 1.64 1.276-0.355 2.645-0.532 4.005-0.539 1.359 0.006 2.729 0.184 4.008 0.539 3.054-2.070 4.395-1.64 4.395-1.64 0.871 2.204 0.323 3.831 0.157 4.234 1.026 1.12 1.647 2.548 1.647 4.295 0 6.145-3.743 7.498-7.306 7.895 0.574 0.497 1.085 1.47 1.085 2.963 0 2.141-0.019 3.864-0.019 4.391 0 0.426 0.288 0.925 1.099 0.768 6.354-2.118 10.933-8.113 10.933-15.18 0-8.837-7.164-16-16-16z"></path>
</symbol>
</defs>
</svg>
